<svg xmlns="http://www.w3.org/2000/svg" viewBox="0 0 1810 1066" width="1810" height="1066"><defs><style type="text/css">@import url('https://fonts.googleapis.com/css?family=Roboto+Mono:400|Roboto:400,&amp;subset=cyrillic,cyrillic-ext,greek,greek-ext,latin-ext')</style></defs><text x="905" y="69" text-anchor="middle" font-size="64px" font-family="Roboto,sans-serif" fill="#52565f">OCR-P5</text><text x="1805" y="1047" text-anchor="end" font-size="14px" font-family="Roboto,sans-serif" color="#52565f">22 November 2021</text><g transform="translate(5,173)"><g><g><g transform="translate(10, 586)"><rect x="0" y="0" rx="2" ry="2" width="180" height="228" fill="#ffffff"/><g><g><g transform="translate( 0, 0 )"><svg xmlns="http://www.w3.org/2000/svg" xmlns:xlink="http://www.w3.org/1999/xlink" width="180" height="185" viewBox="0 0 180 185">
  <defs>
    <rect id="0vm4j0kff4cd-project-a" width="160" height="82" rx="2"/>
  </defs>
  <g fill="none" fill-rule="evenodd">
    <path fill="#58A8F7" d="M0,2.99971296 C0,1.34301724 1.34537458,0 2.99263929,0 L177.007361,0 C178.66015,0 180,1.34382565 180,2.99971296 L180,185 L0,185 L0,2.99971296 Z" opacity=".097"/>
    <path fill="#58A8F7" d="M0,3.00947762 C0,1.34738902 1.34537458,0 2.99263929,0 L177.007361,0 C178.66015,0 180,1.33663106 180,3.00947762 L180,16 L0,16 L0,3.00947762 Z" opacity=".197"/>
    <path fill="#0D87FF" d="M2.5,5 C1.11928813,5 0,3.88071187 0,2.5 C0,1.11928813 1.11928813,0 2.5,0 C3.88071187,0 5,1.11928813 5,2.5 C5,3.88071187 3.88071187,5 2.5,5 Z M10.5,5 C9.11928813,5 8,3.88071187 8,2.5 C8,1.11928813 9.11928813,0 10.5,0 C11.8807119,0 13,1.11928813 13,2.5 C13,3.88071187 11.8807119,5 10.5,5 Z M18.5,5 C17.1192881,5 16,3.88071187 16,2.5 C16,1.11928813 17.1192881,0 18.5,0 C19.8807119,0 21,1.11928813 21,2.5 C21,3.88071187 19.8807119,5 18.5,5 Z" opacity=".499" transform="translate(5 6)"/>
    <g transform="translate(10 57)">
      <rect width="160" height="82" fill="#58A8F7" opacity=".197" rx="2"/>
      <mask id="0vm4j0kff4cd-project-b" fill="#fff">
        <use xlink:href="#0vm4j0kff4cd-project-a"/>
      </mask>
      <use fill="#58A8F7" opacity="0" xlink:href="#0vm4j0kff4cd-project-a"/>
      <path fill="#58A8F7" d="M123.544554,38 C147.292079,38 158.861386,56.7865169 182,82 C163.123762,82 82.3134379,82 59,82 C79.0940594,61.2359551 99.7970297,38 123.544554,38 Z" mask="url(#0vm4j0kff4cd-project-b)" opacity=".197"/>
      <path fill="#0D87FF" d="M44.5,31 C69.8826643,31 86.3055556,55.3181901 109,82 C79.2231422,82 7.11330049,82 -20,82 C1.92139189,55.3181901 19.1173357,31 44.5,31 Z" mask="url(#0vm4j0kff4cd-project-b)" opacity=".198"/>
      <circle cx="87" cy="22" r="9" fill="#58A8F7" mask="url(#0vm4j0kff4cd-project-b)" opacity=".499"/>
    </g>
    <polygon fill="#58A8F7" points="0 0 127 0 127 3 0 3" opacity=".197" transform="translate(27 151)"/>
    <polygon fill="#58A8F7" points="0 0 127 0 127 3 0 3" opacity=".197" transform="translate(27 158)"/>
    <polygon fill="#58A8F7" points="0 0 127 0 127 3 0 3" opacity=".197" transform="translate(27 165)"/>
    <polygon fill="#58A8F7" points="0 0 96 0 96 3 0 3" opacity=".197" transform="translate(42 172)"/>
    <polygon fill="#58A8F7" points="0 0 32 0 32 8 0 8" opacity=".499" transform="translate(74 26)"/>
    <polygon fill="#58A8F7" points="0 0 72 0 72 8 0 8" opacity=".499" transform="translate(54 39)"/>
  </g>
</svg></g></g></g><rect x="-1" y="-1" rx="3" ry="3" width="182" height="230" fill="none" stroke="#A2CEF9" stroke-width="2"/><g transform="translate(0,206)"><g><text x="90" y="4" text-anchor="middle" font-family="Roboto,sans-serif" font-size="14px" fill="#52565f">Post Page</text></g></g></g><g transform="translate(10, 306)"><rect x="0" y="0" rx="2" ry="2" width="180" height="228" fill="#ffffff"/><g><g><g transform="translate( 0, 0 )"><svg xmlns="http://www.w3.org/2000/svg" xmlns:xlink="http://www.w3.org/1999/xlink" width="180" height="185" viewBox="0 0 180 185">
  <defs>
    <path id="2k9at5aooje-portfolio-a" d="M0,2.00359486 C0,0.897039974 0.894337654,0 1.99821383,0 L29.0017862,0 C30.1053692,0 31,0.889763236 31,2.00359486 L31,22.9964051 C31,24.10296 30.1056623,25 29.0017862,25 L1.99821383,25 C0.894630804,25 0,24.1102368 0,22.9964051 L0,2.00359486 Z"/>
    <path id="2k9at5aooje-portfolio-c" d="M0,2.00359486 C0,0.897039974 0.894337654,0 1.99821383,0 L29.0017862,0 C30.1053692,0 31,0.889763236 31,2.00359486 L31,22.9964051 C31,24.10296 30.1056623,25 29.0017862,25 L1.99821383,25 C0.894630804,25 0,24.1102368 0,22.9964051 L0,2.00359486 Z"/>
    <path id="2k9at5aooje-portfolio-e" d="M0,2.00359486 C0,0.897039974 0.894337654,0 1.99821383,0 L29.0017862,0 C30.1053692,0 31,0.889763236 31,2.00359486 L31,22.9964051 C31,24.10296 30.1056623,25 29.0017862,25 L1.99821383,25 C0.894630804,25 0,24.1102368 0,22.9964051 L0,2.00359486 Z"/>
    <path id="2k9at5aooje-portfolio-g" d="M0,2.00359486 C0,0.897039974 0.894337654,0 1.99821383,0 L29.0017862,0 C30.1053692,0 31,0.889763236 31,2.00359486 L31,22.9964051 C31,24.10296 30.1056623,25 29.0017862,25 L1.99821383,25 C0.894630804,25 0,24.1102368 0,22.9964051 L0,2.00359486 Z"/>
    <path id="2k9at5aooje-portfolio-i" d="M0,2.00359486 C0,0.897039974 0.894337654,0 1.99821383,0 L29.0017862,0 C30.1053692,0 31,0.889763236 31,2.00359486 L31,22.9964051 C31,24.10296 30.1056623,25 29.0017862,25 L1.99821383,25 C0.894630804,25 0,24.1102368 0,22.9964051 L0,2.00359486 Z"/>
    <path id="2k9at5aooje-portfolio-k" d="M0,2.00359486 C0,0.897039974 0.894337654,0 1.99821383,0 L29.0017862,0 C30.1053692,0 31,0.889763236 31,2.00359486 L31,22.9964051 C31,24.10296 30.1056623,25 29.0017862,25 L1.99821383,25 C0.894630804,25 0,24.1102368 0,22.9964051 L0,2.00359486 Z"/>
    <path id="2k9at5aooje-portfolio-m" d="M0,2.00359486 C0,0.897039974 0.894337654,0 1.99821383,0 L29.0017862,0 C30.1053692,0 31,0.889763236 31,2.00359486 L31,22.9964051 C31,24.10296 30.1056623,25 29.0017862,25 L1.99821383,25 C0.894630804,25 0,24.1102368 0,22.9964051 L0,2.00359486 Z"/>
    <path id="2k9at5aooje-portfolio-o" d="M0,2.00359486 C0,0.897039974 0.894337654,0 1.99821383,0 L29.0017862,0 C30.1053692,0 31,0.889763236 31,2.00359486 L31,22.9964051 C31,24.10296 30.1056623,25 29.0017862,25 L1.99821383,25 C0.894630804,25 0,24.1102368 0,22.9964051 L0,2.00359486 Z"/>
    <path id="2k9at5aooje-portfolio-q" d="M0,2.00359486 C0,0.897039974 0.894337654,0 1.99821383,0 L29.0017862,0 C30.1053692,0 31,0.889763236 31,2.00359486 L31,22.9964051 C31,24.10296 30.1056623,25 29.0017862,25 L1.99821383,25 C0.894630804,25 0,24.1102368 0,22.9964051 L0,2.00359486 Z"/>
    <path id="2k9at5aooje-portfolio-s" d="M0,2.00359486 C0,0.897039974 0.894337654,0 1.99821383,0 L29.0017862,0 C30.1053692,0 31,0.889763236 31,2.00359486 L31,22.9964051 C31,24.10296 30.1056623,25 29.0017862,25 L1.99821383,25 C0.894630804,25 0,24.1102368 0,22.9964051 L0,2.00359486 Z"/>
    <path id="2k9at5aooje-portfolio-u" d="M0,2.00359486 C0,0.897039974 0.894337654,0 1.99821383,0 L29.0017862,0 C30.1053692,0 31,0.889763236 31,2.00359486 L31,22.9964051 C31,24.10296 30.1056623,25 29.0017862,25 L1.99821383,25 C0.894630804,25 0,24.1102368 0,22.9964051 L0,2.00359486 Z"/>
    <path id="2k9at5aooje-portfolio-w" d="M0,2.00359486 C0,0.897039974 0.894337654,0 1.99821383,0 L29.0017862,0 C30.1053692,0 31,0.889763236 31,2.00359486 L31,22.9964051 C31,24.10296 30.1056623,25 29.0017862,25 L1.99821383,25 C0.894630804,25 0,24.1102368 0,22.9964051 L0,2.00359486 Z"/>
  </defs>
  <g fill="none" fill-rule="evenodd">
    <path fill="#58A8F7" d="M0,2.99971296 C0,1.34301724 1.34537458,0 2.99263929,0 L177.007361,0 C178.66015,0 180,1.34382565 180,2.99971296 L180,185 L0,185 L0,2.99971296 Z" opacity=".097"/>
    <path fill="#58A8F7" d="M0,3.00947762 C0,1.34738902 1.34537458,0 2.99263929,0 L177.007361,0 C178.66015,0 180,1.33663106 180,3.00947762 L180,16 L0,16 L0,3.00947762 Z" opacity=".197"/>
    <path fill="#0D87FF" d="M2.5,5 C1.11928813,5 0,3.88071187 0,2.5 C0,1.11928813 1.11928813,0 2.5,0 C3.88071187,0 5,1.11928813 5,2.5 C5,3.88071187 3.88071187,5 2.5,5 Z M10.5,5 C9.11928813,5 8,3.88071187 8,2.5 C8,1.11928813 9.11928813,0 10.5,0 C11.8807119,0 13,1.11928813 13,2.5 C13,3.88071187 11.8807119,5 10.5,5 Z M18.5,5 C17.1192881,5 16,3.88071187 16,2.5 C16,1.11928813 17.1192881,0 18.5,0 C19.8807119,0 21,1.11928813 21,2.5 C21,3.88071187 19.8807119,5 18.5,5 Z" opacity=".499" transform="translate(5 6)"/>
    <g transform="translate(10 50)">
      <path fill="#58A8F7" d="M0,2.00359486 C0,0.897039974 0.894337654,0 1.99821383,0 L29.0017862,0 C30.1053692,0 31,0.889763236 31,2.00359486 L31,22.9964051 C31,24.10296 30.1056623,25 29.0017862,25 L1.99821383,25 C0.894630804,25 0,24.1102368 0,22.9964051 L0,2.00359486 Z" opacity=".197"/>
      <mask id="2k9at5aooje-portfolio-b" fill="#fff">
        <use xlink:href="#2k9at5aooje-portfolio-a"/>
      </mask>
      <path fill="#58A8F7" d="M26.5714286,13.6363636 C32.5565771,13.6363636 36.2397454,18.4882533 42.0714286,25 C37.3140028,25 16.9471731,25 11.0714286,25 C16.135785,19.6373851 20.5862801,13.6363636 26.5714286,13.6363636 Z" mask="url(#2k9at5aooje-portfolio-b)" opacity=".197"/>
      <path fill="#0D87FF" d="M4.42857143,11.3636364 C10.7461282,11.3636364 15.3872354,17.8658262 21.0357143,25 C13.6244753,25 -4.32312925,25 -11.0714286,25 C-5.61535678,17.8658262 -1.88898538,11.3636364 4.42857143,11.3636364 Z" mask="url(#2k9at5aooje-portfolio-b)" opacity=".198"/>
      <circle cx="16.607" cy="7.955" r="3" fill="#58A8F7" mask="url(#2k9at5aooje-portfolio-b)" opacity=".499"/>
    </g>
    <g transform="translate(10 95)">
      <path fill="#58A8F7" d="M0,2.00359486 C0,0.897039974 0.894337654,0 1.99821383,0 L29.0017862,0 C30.1053692,0 31,0.889763236 31,2.00359486 L31,22.9964051 C31,24.10296 30.1056623,25 29.0017862,25 L1.99821383,25 C0.894630804,25 0,24.1102368 0,22.9964051 L0,2.00359486 Z" opacity=".197"/>
      <mask id="2k9at5aooje-portfolio-d" fill="#fff">
        <use xlink:href="#2k9at5aooje-portfolio-c"/>
      </mask>
      <path fill="#58A8F7" d="M26.5714286,13.6363636 C32.5565771,13.6363636 36.2397454,18.4882533 42.0714286,25 C37.3140028,25 16.9471731,25 11.0714286,25 C16.135785,19.6373851 20.5862801,13.6363636 26.5714286,13.6363636 Z" mask="url(#2k9at5aooje-portfolio-d)" opacity=".197"/>
      <path fill="#0D87FF" d="M4.42857143,11.3636364 C10.7461282,11.3636364 15.3872354,17.8658262 21.0357143,25 C13.6244753,25 -4.32312925,25 -11.0714286,25 C-5.61535678,17.8658262 -1.88898538,11.3636364 4.42857143,11.3636364 Z" mask="url(#2k9at5aooje-portfolio-d)" opacity=".198"/>
      <circle cx="16.607" cy="7.955" r="3" fill="#58A8F7" mask="url(#2k9at5aooje-portfolio-d)" opacity=".499"/>
    </g>
    <g transform="translate(53 50)">
      <path fill="#58A8F7" d="M0,2.00359486 C0,0.897039974 0.894337654,0 1.99821383,0 L29.0017862,0 C30.1053692,0 31,0.889763236 31,2.00359486 L31,22.9964051 C31,24.10296 30.1056623,25 29.0017862,25 L1.99821383,25 C0.894630804,25 0,24.1102368 0,22.9964051 L0,2.00359486 Z" opacity=".197"/>
      <mask id="2k9at5aooje-portfolio-f" fill="#fff">
        <use xlink:href="#2k9at5aooje-portfolio-e"/>
      </mask>
      <path fill="#58A8F7" d="M26.5714286,13.6363636 C32.5565771,13.6363636 36.2397454,18.4882533 42.0714286,25 C37.3140028,25 16.9471731,25 11.0714286,25 C16.135785,19.6373851 20.5862801,13.6363636 26.5714286,13.6363636 Z" mask="url(#2k9at5aooje-portfolio-f)" opacity=".197"/>
      <path fill="#0D87FF" d="M4.42857143,11.3636364 C10.7461282,11.3636364 15.3872354,17.8658262 21.0357143,25 C13.6244753,25 -4.32312925,25 -11.0714286,25 C-5.61535678,17.8658262 -1.88898538,11.3636364 4.42857143,11.3636364 Z" mask="url(#2k9at5aooje-portfolio-f)" opacity=".198"/>
      <circle cx="16.607" cy="7.955" r="3" fill="#58A8F7" mask="url(#2k9at5aooje-portfolio-f)" opacity=".499"/>
    </g>
    <g transform="translate(53 95)">
      <path fill="#58A8F7" d="M0,2.00359486 C0,0.897039974 0.894337654,0 1.99821383,0 L29.0017862,0 C30.1053692,0 31,0.889763236 31,2.00359486 L31,22.9964051 C31,24.10296 30.1056623,25 29.0017862,25 L1.99821383,25 C0.894630804,25 0,24.1102368 0,22.9964051 L0,2.00359486 Z" opacity=".197"/>
      <mask id="2k9at5aooje-portfolio-h" fill="#fff">
        <use xlink:href="#2k9at5aooje-portfolio-g"/>
      </mask>
      <path fill="#58A8F7" d="M26.5714286,13.6363636 C32.5565771,13.6363636 36.2397454,18.4882533 42.0714286,25 C37.3140028,25 16.9471731,25 11.0714286,25 C16.135785,19.6373851 20.5862801,13.6363636 26.5714286,13.6363636 Z" mask="url(#2k9at5aooje-portfolio-h)" opacity=".197"/>
      <path fill="#0D87FF" d="M4.42857143,11.3636364 C10.7461282,11.3636364 15.3872354,17.8658262 21.0357143,25 C13.6244753,25 -4.32312925,25 -11.0714286,25 C-5.61535678,17.8658262 -1.88898538,11.3636364 4.42857143,11.3636364 Z" mask="url(#2k9at5aooje-portfolio-h)" opacity=".198"/>
      <circle cx="16.607" cy="7.955" r="3" fill="#58A8F7" mask="url(#2k9at5aooje-portfolio-h)" opacity=".499"/>
    </g>
    <g transform="translate(96 50)">
      <path fill="#58A8F7" d="M0,2.00359486 C0,0.897039974 0.894337654,0 1.99821383,0 L29.0017862,0 C30.1053692,0 31,0.889763236 31,2.00359486 L31,22.9964051 C31,24.10296 30.1056623,25 29.0017862,25 L1.99821383,25 C0.894630804,25 0,24.1102368 0,22.9964051 L0,2.00359486 Z" opacity=".197"/>
      <mask id="2k9at5aooje-portfolio-j" fill="#fff">
        <use xlink:href="#2k9at5aooje-portfolio-i"/>
      </mask>
      <path fill="#58A8F7" d="M26.5714286,13.6363636 C32.5565771,13.6363636 36.2397454,18.4882533 42.0714286,25 C37.3140028,25 16.9471731,25 11.0714286,25 C16.135785,19.6373851 20.5862801,13.6363636 26.5714286,13.6363636 Z" mask="url(#2k9at5aooje-portfolio-j)" opacity=".197"/>
      <path fill="#0D87FF" d="M4.42857143,11.3636364 C10.7461282,11.3636364 15.3872354,17.8658262 21.0357143,25 C13.6244753,25 -4.32312925,25 -11.0714286,25 C-5.61535678,17.8658262 -1.88898538,11.3636364 4.42857143,11.3636364 Z" mask="url(#2k9at5aooje-portfolio-j)" opacity=".198"/>
      <circle cx="16.607" cy="7.955" r="3" fill="#58A8F7" mask="url(#2k9at5aooje-portfolio-j)" opacity=".499"/>
    </g>
    <g transform="translate(96 95)">
      <path fill="#58A8F7" d="M0,2.00359486 C0,0.897039974 0.894337654,0 1.99821383,0 L29.0017862,0 C30.1053692,0 31,0.889763236 31,2.00359486 L31,22.9964051 C31,24.10296 30.1056623,25 29.0017862,25 L1.99821383,25 C0.894630804,25 0,24.1102368 0,22.9964051 L0,2.00359486 Z" opacity=".197"/>
      <mask id="2k9at5aooje-portfolio-l" fill="#fff">
        <use xlink:href="#2k9at5aooje-portfolio-k"/>
      </mask>
      <path fill="#58A8F7" d="M26.5714286,13.6363636 C32.5565771,13.6363636 36.2397454,18.4882533 42.0714286,25 C37.3140028,25 16.9471731,25 11.0714286,25 C16.135785,19.6373851 20.5862801,13.6363636 26.5714286,13.6363636 Z" mask="url(#2k9at5aooje-portfolio-l)" opacity=".197"/>
      <path fill="#0D87FF" d="M4.42857143,11.3636364 C10.7461282,11.3636364 15.3872354,17.8658262 21.0357143,25 C13.6244753,25 -4.32312925,25 -11.0714286,25 C-5.61535678,17.8658262 -1.88898538,11.3636364 4.42857143,11.3636364 Z" mask="url(#2k9at5aooje-portfolio-l)" opacity=".198"/>
      <circle cx="16.607" cy="7.955" r="3" fill="#58A8F7" mask="url(#2k9at5aooje-portfolio-l)" opacity=".499"/>
    </g>
    <g transform="translate(139 50)">
      <path fill="#58A8F7" d="M0,2.00359486 C0,0.897039974 0.894337654,0 1.99821383,0 L29.0017862,0 C30.1053692,0 31,0.889763236 31,2.00359486 L31,22.9964051 C31,24.10296 30.1056623,25 29.0017862,25 L1.99821383,25 C0.894630804,25 0,24.1102368 0,22.9964051 L0,2.00359486 Z" opacity=".197"/>
      <mask id="2k9at5aooje-portfolio-n" fill="#fff">
        <use xlink:href="#2k9at5aooje-portfolio-m"/>
      </mask>
      <path fill="#58A8F7" d="M26.5714286,13.6363636 C32.5565771,13.6363636 36.2397454,18.4882533 42.0714286,25 C37.3140028,25 16.9471731,25 11.0714286,25 C16.135785,19.6373851 20.5862801,13.6363636 26.5714286,13.6363636 Z" mask="url(#2k9at5aooje-portfolio-n)" opacity=".197"/>
      <path fill="#0D87FF" d="M4.42857143,11.3636364 C10.7461282,11.3636364 15.3872354,17.8658262 21.0357143,25 C13.6244753,25 -4.32312925,25 -11.0714286,25 C-5.61535678,17.8658262 -1.88898538,11.3636364 4.42857143,11.3636364 Z" mask="url(#2k9at5aooje-portfolio-n)" opacity=".198"/>
      <circle cx="16.607" cy="7.955" r="3" fill="#58A8F7" mask="url(#2k9at5aooje-portfolio-n)" opacity=".499"/>
    </g>
    <g transform="translate(139 95)">
      <path fill="#58A8F7" d="M0,2.00359486 C0,0.897039974 0.894337654,0 1.99821383,0 L29.0017862,0 C30.1053692,0 31,0.889763236 31,2.00359486 L31,22.9964051 C31,24.10296 30.1056623,25 29.0017862,25 L1.99821383,25 C0.894630804,25 0,24.1102368 0,22.9964051 L0,2.00359486 Z" opacity=".197"/>
      <mask id="2k9at5aooje-portfolio-p" fill="#fff">
        <use xlink:href="#2k9at5aooje-portfolio-o"/>
      </mask>
      <path fill="#58A8F7" d="M26.5714286,13.6363636 C32.5565771,13.6363636 36.2397454,18.4882533 42.0714286,25 C37.3140028,25 16.9471731,25 11.0714286,25 C16.135785,19.6373851 20.5862801,13.6363636 26.5714286,13.6363636 Z" mask="url(#2k9at5aooje-portfolio-p)" opacity=".197"/>
      <path fill="#0D87FF" d="M4.42857143,11.3636364 C10.7461282,11.3636364 15.3872354,17.8658262 21.0357143,25 C13.6244753,25 -4.32312925,25 -11.0714286,25 C-5.61535678,17.8658262 -1.88898538,11.3636364 4.42857143,11.3636364 Z" mask="url(#2k9at5aooje-portfolio-p)" opacity=".198"/>
      <circle cx="16.607" cy="7.955" r="3" fill="#58A8F7" mask="url(#2k9at5aooje-portfolio-p)" opacity=".499"/>
    </g>
    <polygon fill="#58A8F7" points="0 0 31 0 31 5 0 5" opacity=".499" transform="translate(10 80)"/>
    <polygon fill="#58A8F7" points="0 0 31 0 31 5 0 5" opacity=".499" transform="translate(10 125)"/>
    <polygon fill="#58A8F7" points="0 0 31 0 31 5 0 5" opacity=".499" transform="translate(53 80)"/>
    <polygon fill="#58A8F7" points="0 0 31 0 31 5 0 5" opacity=".499" transform="translate(53 125)"/>
    <polygon fill="#58A8F7" points="0 0 31 0 31 5 0 5" opacity=".499" transform="translate(96 80)"/>
    <polygon fill="#58A8F7" points="0 0 31 0 31 5 0 5" opacity=".499" transform="translate(96 125)"/>
    <polygon fill="#58A8F7" points="0 0 31 0 31 5 0 5" opacity=".499" transform="translate(139 80)"/>
    <polygon fill="#58A8F7" points="0 0 31 0 31 5 0 5" opacity=".499" transform="translate(139 125)"/>
    <g transform="translate(10 140)">
      <path fill="#58A8F7" d="M0,2.00359486 C0,0.897039974 0.894337654,0 1.99821383,0 L29.0017862,0 C30.1053692,0 31,0.889763236 31,2.00359486 L31,22.9964051 C31,24.10296 30.1056623,25 29.0017862,25 L1.99821383,25 C0.894630804,25 0,24.1102368 0,22.9964051 L0,2.00359486 Z" opacity=".197"/>
      <mask id="2k9at5aooje-portfolio-r" fill="#fff">
        <use xlink:href="#2k9at5aooje-portfolio-q"/>
      </mask>
      <path fill="#58A8F7" d="M26.5714286,13.6363636 C32.5565771,13.6363636 36.2397454,18.4882533 42.0714286,25 C37.3140028,25 16.9471731,25 11.0714286,25 C16.135785,19.6373851 20.5862801,13.6363636 26.5714286,13.6363636 Z" mask="url(#2k9at5aooje-portfolio-r)" opacity=".197"/>
      <path fill="#0D87FF" d="M4.42857143,11.3636364 C10.7461282,11.3636364 15.3872354,17.8658262 21.0357143,25 C13.6244753,25 -4.32312925,25 -11.0714286,25 C-5.61535678,17.8658262 -1.88898538,11.3636364 4.42857143,11.3636364 Z" mask="url(#2k9at5aooje-portfolio-r)" opacity=".198"/>
      <circle cx="16.607" cy="7.955" r="3" fill="#58A8F7" mask="url(#2k9at5aooje-portfolio-r)" opacity=".499"/>
    </g>
    <g transform="translate(53 140)">
      <path fill="#58A8F7" d="M0,2.00359486 C0,0.897039974 0.894337654,0 1.99821383,0 L29.0017862,0 C30.1053692,0 31,0.889763236 31,2.00359486 L31,22.9964051 C31,24.10296 30.1056623,25 29.0017862,25 L1.99821383,25 C0.894630804,25 0,24.1102368 0,22.9964051 L0,2.00359486 Z" opacity=".197"/>
      <mask id="2k9at5aooje-portfolio-t" fill="#fff">
        <use xlink:href="#2k9at5aooje-portfolio-s"/>
      </mask>
      <path fill="#58A8F7" d="M26.5714286,13.6363636 C32.5565771,13.6363636 36.2397454,18.4882533 42.0714286,25 C37.3140028,25 16.9471731,25 11.0714286,25 C16.135785,19.6373851 20.5862801,13.6363636 26.5714286,13.6363636 Z" mask="url(#2k9at5aooje-portfolio-t)" opacity=".197"/>
      <path fill="#0D87FF" d="M4.42857143,11.3636364 C10.7461282,11.3636364 15.3872354,17.8658262 21.0357143,25 C13.6244753,25 -4.32312925,25 -11.0714286,25 C-5.61535678,17.8658262 -1.88898538,11.3636364 4.42857143,11.3636364 Z" mask="url(#2k9at5aooje-portfolio-t)" opacity=".198"/>
      <circle cx="16.607" cy="7.955" r="3" fill="#58A8F7" mask="url(#2k9at5aooje-portfolio-t)" opacity=".499"/>
    </g>
    <g transform="translate(96 140)">
      <path fill="#58A8F7" d="M0,2.00359486 C0,0.897039974 0.894337654,0 1.99821383,0 L29.0017862,0 C30.1053692,0 31,0.889763236 31,2.00359486 L31,22.9964051 C31,24.10296 30.1056623,25 29.0017862,25 L1.99821383,25 C0.894630804,25 0,24.1102368 0,22.9964051 L0,2.00359486 Z" opacity=".197"/>
      <mask id="2k9at5aooje-portfolio-v" fill="#fff">
        <use xlink:href="#2k9at5aooje-portfolio-u"/>
      </mask>
      <path fill="#58A8F7" d="M26.5714286,13.6363636 C32.5565771,13.6363636 36.2397454,18.4882533 42.0714286,25 C37.3140028,25 16.9471731,25 11.0714286,25 C16.135785,19.6373851 20.5862801,13.6363636 26.5714286,13.6363636 Z" mask="url(#2k9at5aooje-portfolio-v)" opacity=".197"/>
      <path fill="#0D87FF" d="M4.42857143,11.3636364 C10.7461282,11.3636364 15.3872354,17.8658262 21.0357143,25 C13.6244753,25 -4.32312925,25 -11.0714286,25 C-5.61535678,17.8658262 -1.88898538,11.3636364 4.42857143,11.3636364 Z" mask="url(#2k9at5aooje-portfolio-v)" opacity=".198"/>
      <circle cx="16.607" cy="7.955" r="3" fill="#58A8F7" mask="url(#2k9at5aooje-portfolio-v)" opacity=".499"/>
    </g>
    <g transform="translate(139 140)">
      <path fill="#58A8F7" d="M0,2.00359486 C0,0.897039974 0.894337654,0 1.99821383,0 L29.0017862,0 C30.1053692,0 31,0.889763236 31,2.00359486 L31,22.9964051 C31,24.10296 30.1056623,25 29.0017862,25 L1.99821383,25 C0.894630804,25 0,24.1102368 0,22.9964051 L0,2.00359486 Z" opacity=".197"/>
      <mask id="2k9at5aooje-portfolio-x" fill="#fff">
        <use xlink:href="#2k9at5aooje-portfolio-w"/>
      </mask>
      <path fill="#58A8F7" d="M26.5714286,13.6363636 C32.5565771,13.6363636 36.2397454,18.4882533 42.0714286,25 C37.3140028,25 16.9471731,25 11.0714286,25 C16.135785,19.6373851 20.5862801,13.6363636 26.5714286,13.6363636 Z" mask="url(#2k9at5aooje-portfolio-x)" opacity=".197"/>
      <path fill="#0D87FF" d="M4.42857143,11.3636364 C10.7461282,11.3636364 15.3872354,17.8658262 21.0357143,25 C13.6244753,25 -4.32312925,25 -11.0714286,25 C-5.61535678,17.8658262 -1.88898538,11.3636364 4.42857143,11.3636364 Z" mask="url(#2k9at5aooje-portfolio-x)" opacity=".198"/>
      <circle cx="16.607" cy="7.955" r="3" fill="#58A8F7" mask="url(#2k9at5aooje-portfolio-x)" opacity=".499"/>
    </g>
    <polygon fill="#58A8F7" points="0 0 31 0 31 5 0 5" opacity=".499" transform="translate(10 170)"/>
    <polygon fill="#58A8F7" points="0 0 31 0 31 5 0 5" opacity=".499" transform="translate(53 170)"/>
    <polygon fill="#58A8F7" points="0 0 31 0 31 5 0 5" opacity=".499" transform="translate(96 170)"/>
    <polygon fill="#58A8F7" points="0 0 31 0 31 5 0 5" opacity=".499" transform="translate(139 170)"/>
    <g fill="#58A8F7" opacity=".499" transform="translate(11 26)">
      <polygon points="0 0 50 0 50 5 0 5"/>
      <polygon points="0 0 30 0 30 5 0 5" transform="translate(0 9)"/>
    </g>
  </g>
</svg></g></g></g><rect x="-1" y="-1" rx="3" ry="3" width="182" height="230" fill="none" stroke="#A2CEF9" stroke-width="2"/><g transform="translate(0,206)"><g><text x="90" y="4" text-anchor="middle" font-family="Roboto,sans-serif" font-size="14px" fill="#52565f">Posts List</text></g></g></g><g transform="translate(210, 306)"><rect x="0" y="0" rx="2" ry="2" width="180" height="228" fill="#ffffff"/><g><g><g transform="translate( 0, 0 )"><svg xmlns="http://www.w3.org/2000/svg" width="180" height="185" viewBox="0 0 180 185">
  <g fill="none" fill-rule="evenodd">
    <path fill="#58A8F7" d="M0,2.99971296 C0,1.34301724 1.34537458,0 2.99263929,0 L177.007361,0 C178.66015,0 180,1.34382565 180,2.99971296 L180,185 L0,185 L0,2.99971296 Z" opacity=".097"/>
    <path fill="#58A8F7" d="M0,3.00947762 C0,1.34738902 1.34537458,0 2.99263929,0 L177.007361,0 C178.66015,0 180,1.33663106 180,3.00947762 L180,16 L0,16 L0,3.00947762 Z" opacity=".197"/>
    <path fill="#0D87FF" d="M2.5,5 C1.11928813,5 0,3.88071187 0,2.5 C0,1.11928813 1.11928813,0 2.5,0 C3.88071187,0 5,1.11928813 5,2.5 C5,3.88071187 3.88071187,5 2.5,5 Z M10.5,5 C9.11928813,5 8,3.88071187 8,2.5 C8,1.11928813 9.11928813,0 10.5,0 C11.8807119,0 13,1.11928813 13,2.5 C13,3.88071187 11.8807119,5 10.5,5 Z M18.5,5 C17.1192881,5 16,3.88071187 16,2.5 C16,1.11928813 17.1192881,0 18.5,0 C19.8807119,0 21,1.11928813 21,2.5 C21,3.88071187 19.8807119,5 18.5,5 Z" opacity=".499" transform="translate(5 6)"/>
    <path fill="#58A8F7" d="M3.8458278,-1.55376046e-16 L107.154172,1.55376046e-16 C108.49145,-9.02779573e-17 108.97638,0.139238417 109.465269,0.400699056 C109.954157,0.662159695 110.33784,1.04584256 110.599301,1.53473144 C110.860762,2.02362033 111,2.50854969 111,3.8458278 L111,108.154172 C111,109.49145 110.860762,109.97638 110.599301,110.465269 C110.33784,110.954157 109.954157,111.33784 109.465269,111.599301 C108.97638,111.860762 108.49145,112 107.154172,112 L3.8458278,112 C2.50854969,112 2.02362033,111.860762 1.53473144,111.599301 C1.04584256,111.33784 0.662159695,110.954157 0.400699056,110.465269 C0.139238417,109.97638 6.01853049e-17,109.49145 -1.03584031e-16,108.154172 L1.03584031e-16,3.8458278 C-6.01853049e-17,2.50854969 0.139238417,2.02362033 0.400699056,1.53473144 C0.662159695,1.04584256 1.04584256,0.662159695 1.53473144,0.400699056 C2.02362033,0.139238417 2.50854969,9.02779573e-17 3.8458278,-1.55376046e-16 Z" opacity=".197" transform="translate(35 54)"/>
    <g transform="translate(45 64)">
      <g transform="translate(0 6)">
        <rect width="91" height="11" fill="#58A8F7" opacity=".499" rx="2"/>
        <rect width="89" height="9" x="1" y="1" fill="#FFF" rx="1"/>
        <polygon fill="#58A8F7" points="0 0 53 0 53 3 0 3" opacity=".197" transform="translate(4 4)"/>
        <polygon fill="#0D87FF" points="2.5 3 0 0 5 0" transform="translate(81 4)"/>
      </g>
      <polygon fill="#58A8F7" points="0 0 32 0 32 3 0 3" opacity=".197"/>
    </g>
    <g transform="translate(45 91)">
      <g transform="translate(0 6)">
        <rect width="91" height="11" fill="#58A8F7" opacity=".499" rx="2"/>
        <rect width="89" height="9" x="1" y="1" fill="#FFF" rx="1"/>
      </g>
      <polygon fill="#58A8F7" points="0 0 20 0 20 3 0 3" opacity=".197"/>
    </g>
    <g transform="translate(45 118)">
      <g transform="translate(0 6)">
        <rect width="91" height="11" fill="#58A8F7" opacity=".499" rx="2"/>
        <rect width="89" height="9" x="1" y="1" fill="#FFF" rx="1"/>
      </g>
      <polygon fill="#58A8F7" points="0 0 20 0 20 3 0 3" opacity=".197"/>
    </g>
    <rect width="31" height="11" fill="#58A8F7" opacity=".197" rx="2" transform="translate(105 145)"/>
    <path fill="#0D87FF" d="M0,1.99201702 C0,0.891856397 0.886195535,0 2.00630931,0 L52.9936907,0 C54.1017447,0 55,0.900176167 55,1.99201702 L55,9.00798298 C55,10.1081436 54.1138045,11 52.9936907,11 L2.00630931,11 C0.898255275,11 0,10.0998238 0,9.00798298 L0,1.99201702 Z" opacity=".499" transform="translate(45 145)"/>
    <polygon fill="#58A8F7" points="0 0 50 0 50 8 0 8" opacity=".499" transform="translate(65 36)"/>
  </g>
</svg></g></g></g><rect x="-1" y="-1" rx="3" ry="3" width="182" height="230" fill="none" stroke="#A2CEF9" stroke-width="2"/><g transform="translate(0,206)"><g><text x="90" y="4" text-anchor="middle" font-family="Roboto,sans-serif" font-size="14px" fill="#52565f">Regitration</text></g></g></g><g transform="translate(410, 306)"><rect x="0" y="0" rx="2" ry="2" width="180" height="228" fill="#ffffff"/><g><g><g transform="translate( 0, 0 )"><svg xmlns="http://www.w3.org/2000/svg" width="180" height="185" viewBox="0 0 180 185">
  <g fill="none" fill-rule="evenodd">
    <path fill="#58A8F7" d="M0,2.99971296 C0,1.34301724 1.34537458,0 2.99263929,0 L177.007361,0 C178.66015,0 180,1.34382565 180,2.99971296 L180,185 L0,185 L0,2.99971296 Z" opacity=".097"/>
    <path fill="#58A8F7" d="M0,3.00947762 C0,1.34738902 1.34537458,0 2.99263929,0 L177.007361,0 C178.66015,0 180,1.33663106 180,3.00947762 L180,16 L0,16 L0,3.00947762 Z" opacity=".197"/>
    <path fill="#0D87FF" d="M2.5,5 C1.11928813,5 0,3.88071187 0,2.5 C0,1.11928813 1.11928813,0 2.5,0 C3.88071187,0 5,1.11928813 5,2.5 C5,3.88071187 3.88071187,5 2.5,5 Z M10.5,5 C9.11928813,5 8,3.88071187 8,2.5 C8,1.11928813 9.11928813,0 10.5,0 C11.8807119,0 13,1.11928813 13,2.5 C13,3.88071187 11.8807119,5 10.5,5 Z M18.5,5 C17.1192881,5 16,3.88071187 16,2.5 C16,1.11928813 17.1192881,0 18.5,0 C19.8807119,0 21,1.11928813 21,2.5 C21,3.88071187 19.8807119,5 18.5,5 Z" opacity=".499" transform="translate(5 6)"/>
    <path fill="#58A8F7" d="M3.8458278,-1.55376046e-16 L107.154172,1.55376046e-16 C108.49145,-9.02779573e-17 108.97638,0.139238417 109.465269,0.400699056 C109.954157,0.662159695 110.33784,1.04584256 110.599301,1.53473144 C110.860762,2.02362033 111,2.50854969 111,3.8458278 L111,81.1541722 C111,82.4914503 110.860762,82.9763797 110.599301,83.4652686 C110.33784,83.9541574 109.954157,84.3378403 109.465269,84.5993009 C108.97638,84.8607616 108.49145,85 107.154172,85 L3.8458278,85 C2.50854969,85 2.02362033,84.8607616 1.53473144,84.5993009 C1.04584256,84.3378403 0.662159695,83.9541574 0.400699056,83.4652686 C0.139238417,82.9763797 6.01853049e-17,82.4914503 -1.03584031e-16,81.1541722 L1.03584031e-16,3.8458278 C-6.01853049e-17,2.50854969 0.139238417,2.02362033 0.400699056,1.53473144 C0.662159695,1.04584256 1.04584256,0.662159695 1.53473144,0.400699056 C2.02362033,0.139238417 2.50854969,9.02779573e-17 3.8458278,-1.55376046e-16 Z" opacity=".197" transform="translate(35 54)"/>
    <g transform="translate(45 64)">
      <g transform="translate(0 6)">
        <rect width="91" height="11" fill="#58A8F7" opacity=".499" rx="2"/>
        <rect width="89" height="9" x="1" y="1" fill="#FFF" rx="1"/>
        <polygon fill="#58A8F7" points="0 0 53 0 53 3 0 3" opacity=".197" transform="translate(4 4)"/>
        <polygon fill="#0D87FF" points="2.5 3 0 0 5 0" transform="translate(81 4)"/>
      </g>
      <polygon fill="#58A8F7" points="0 0 32 0 32 3 0 3" opacity=".197"/>
    </g>
    <g transform="translate(45 91)">
      <g transform="translate(0 6)">
        <rect width="91" height="11" fill="#58A8F7" opacity=".499" rx="2"/>
        <rect width="89" height="9" x="1" y="1" fill="#FFF" rx="1"/>
      </g>
      <polygon fill="#58A8F7" points="0 0 20 0 20 3 0 3" opacity=".197"/>
    </g>
    <path fill="#0D87FF" d="M0,1.99201702 C0,0.891856397 0.900658965,0 2.00671997,0 L88.99328,0 C90.1015609,0 91,0.900176167 91,1.99201702 L91,9.00798298 C91,10.1081436 90.099341,11 88.99328,11 L2.00671997,11 C0.898439133,11 0,10.0998238 0,9.00798298 L0,1.99201702 Z" opacity=".499" transform="translate(45 118)"/>
    <polygon fill="#58A8F7" points="0 0 50 0 50 8 0 8" opacity=".499" transform="translate(65 36)"/>
  </g>
</svg></g></g></g><rect x="-1" y="-1" rx="3" ry="3" width="182" height="230" fill="none" stroke="#A2CEF9" stroke-width="2"/><g transform="translate(0,206)"><g><text x="90" y="4" text-anchor="middle" font-family="Roboto,sans-serif" font-size="14px" fill="#52565f">Log in</text></g></g></g><g transform="translate(610, 306)"><rect x="0" y="0" rx="2" ry="2" width="180" height="228" fill="#ffffff"/><g><g><g transform="translate( 0, 0 )"><svg xmlns="http://www.w3.org/2000/svg" xmlns:xlink="http://www.w3.org/1999/xlink" width="180" height="185" viewBox="0 0 180 185">
  <defs>
    <path id="lnij8rq6loe-lk-a" d="M0,1.99729162 C0,0.894217919 0.899814069,0 1.99402962,0 L158.00597,0 C159.107243,0 160,0.891539827 160,1.99729162 L160,38.0027084 C160,39.1057821 159.100186,40 158.00597,40 L1.99402962,40 C0.89275747,40 0,39.1084602 0,38.0027084 L0,1.99729162 Z"/>
    <circle id="lnij8rq6loe-lk-c" cx="18" cy="18" r="18"/>
  </defs>
  <g fill="none" fill-rule="evenodd">
    <path fill="#58A8F7" d="M0,2.99971296 C0,1.34301724 1.34537458,0 2.99263929,0 L177.007361,0 C178.66015,0 180,1.34382565 180,2.99971296 L180,185 L0,185 L0,2.99971296 Z" opacity=".097"/>
    <g transform="translate(10 26)">
      <path fill="#58A8F7" d="M0,1.99729162 C0,0.894217919 0.899814069,0 1.99402962,0 L158.00597,0 C159.107243,0 160,0.891539827 160,1.99729162 L160,38.0027084 C160,39.1057821 159.100186,40 158.00597,40 L1.99402962,40 C0.89275747,40 0,39.1084602 0,38.0027084 L0,1.99729162 Z" opacity=".197"/>
      <mask id="lnij8rq6loe-lk-b" fill="#fff">
        <use xlink:href="#lnij8rq6loe-lk-a"/>
      </mask>
      <path fill="#58A8F7" d="M123.544554,22 C147.292079,22 158.861386,29.6853933 182,40 C163.123762,40 82.3134379,40 59,40 C79.0940594,31.505618 99.7970297,22 123.544554,22 Z" mask="url(#lnij8rq6loe-lk-b)" opacity=".197"/>
      <path fill="#0D87FF" d="M44.5,9 C69.8826643,9 86.3055556,23.781645 109,40 C79.2231422,40 7.11330049,40 -20,40 C1.92139189,23.781645 19.1173357,9 44.5,9 Z" mask="url(#lnij8rq6loe-lk-b)" opacity=".198"/>
      <circle cx="94" cy="11" r="7" fill="#58A8F7" mask="url(#lnij8rq6loe-lk-b)" opacity=".499"/>
    </g>
    <circle cx="18" cy="18" r="18" fill="#FFF" transform="translate(19 58)"/>
    <g fill="#58A8F7" opacity=".499" transform="translate(60 71)">
      <polygon points="0 0 50 0 50 5 0 5"/>
      <polygon points="0 0 30 0 30 5 0 5" transform="translate(0 9)"/>
    </g>
    <g transform="translate(19 58)">
      <mask id="lnij8rq6loe-lk-d" fill="#fff">
        <use xlink:href="#lnij8rq6loe-lk-c"/>
      </mask>
      <use fill="#58A8F7" opacity=".197" xlink:href="#lnij8rq6loe-lk-c"/>
      <path fill="#0D87FF" d="M18,50.4 C9.3843579,50.4 2.4,43.4156421 2.4,34.8 C2.4,26.1843579 9.3843579,19.2 18,19.2 C26.6156421,19.2 33.6,26.1843579 33.6,34.8 C33.6,43.4156421 26.6156421,50.4 18,50.4 Z M18,16.8 C14.6862915,16.8 12,14.1137085 12,10.8 C12,7.4862915 14.6862915,4.8 18,4.8 C21.3137085,4.8 24,7.4862915 24,10.8 C24,14.1137085 21.3137085,16.8 18,16.8 Z" mask="url(#lnij8rq6loe-lk-d)" opacity=".499"/>
    </g>
    <path fill="#58A8F7" d="M0,3.00947762 C0,1.34738902 1.34537458,0 2.99263929,0 L177.007361,0 C178.66015,0 180,1.33663106 180,3.00947762 L180,16 L0,16 L0,3.00947762 Z" opacity=".197"/>
    <path fill="#0D87FF" d="M2.5,5 C1.11928813,5 0,3.88071187 0,2.5 C0,1.11928813 1.11928813,0 2.5,0 C3.88071187,0 5,1.11928813 5,2.5 C5,3.88071187 3.88071187,5 2.5,5 Z M10.5,5 C9.11928813,5 8,3.88071187 8,2.5 C8,1.11928813 9.11928813,0 10.5,0 C11.8807119,0 13,1.11928813 13,2.5 C13,3.88071187 11.8807119,5 10.5,5 Z M18.5,5 C17.1192881,5 16,3.88071187 16,2.5 C16,1.11928813 17.1192881,0 18.5,0 C19.8807119,0 21,1.11928813 21,2.5 C21,3.88071187 19.8807119,5 18.5,5 Z" opacity=".499" transform="translate(5 6)"/>
    <g transform="translate(10 104)">
      <g transform="translate(0 6)">
        <rect width="91" height="11" fill="#58A8F7" opacity=".499" rx="2"/>
        <rect width="89" height="9" x="1" y="1" fill="#FFF" rx="1"/>
        <polygon fill="#58A8F7" points="0 0 53 0 53 3 0 3" opacity=".197" transform="translate(4 4)"/>
        <polygon fill="#0D87FF" points="2.5 3 0 0 5 0" transform="translate(81 4)"/>
      </g>
      <polygon fill="#58A8F7" points="0 0 32 0 32 3 0 3" opacity=".197"/>
    </g>
    <g transform="translate(10 153)">
      <g transform="translate(0 6)">
        <rect width="91" height="11" fill="#58A8F7" opacity=".499" rx="2"/>
        <rect width="89" height="9" x="1" y="1" fill="#FFF" rx="1"/>
        <polygon fill="#58A8F7" points="0 0 53 0 53 3 0 3" opacity=".197" transform="translate(4 4)"/>
        <polygon fill="#0D87FF" points="2.5 3 0 0 5 0" transform="translate(81 4)"/>
      </g>
      <polygon fill="#58A8F7" points="0 0 32 0 32 3 0 3" opacity=".197"/>
    </g>
    <g transform="translate(10 126)">
      <g transform="translate(0 6)">
        <rect width="91" height="11" fill="#58A8F7" opacity=".499" rx="2"/>
        <rect width="89" height="9" x="1" y="1" fill="#FFF" rx="1"/>
        <polygon fill="#58A8F7" points="0 0 53 0 53 3 0 3" opacity=".197" transform="translate(4 4)"/>
        <polygon fill="#0D87FF" points="2.5 3 0 0 5 0" transform="translate(81 4)"/>
      </g>
      <polygon fill="#58A8F7" points="0 0 32 0 32 3 0 3" opacity=".197"/>
    </g>
  </g>
</svg></g></g></g><rect x="-1" y="-1" rx="3" ry="3" width="182" height="230" fill="none" stroke="#A2CEF9" stroke-width="2"/><g transform="translate(0,206)"><g><text x="90" y="4" text-anchor="middle" font-family="Roboto,sans-serif" font-size="14px" fill="#52565f">Profile</text></g></g></g><g transform="translate(810, 586)"><rect x="0" y="0" rx="2" ry="2" width="180" height="228" fill="#ffffff"/><g><g><g transform="translate( 0, 0 )"><svg xmlns="http://www.w3.org/2000/svg" width="180" height="185" viewBox="0 0 180 185">
  <g fill="none" fill-rule="evenodd">
    <path fill="#58A8F7" d="M0,2.99971296 C0,1.34301724 1.34537458,0 2.99263929,0 L177.007361,0 C178.66015,0 180,1.34382565 180,2.99971296 L180,185 L0,185 L0,2.99971296 Z" opacity=".097"/>
    <path fill="#58A8F7" d="M0,3.00947762 C0,1.34738902 1.34537458,0 2.99263929,0 L177.007361,0 C178.66015,0 180,1.33663106 180,3.00947762 L180,16 L0,16 L0,3.00947762 Z" opacity=".197"/>
    <path fill="#0D87FF" d="M2.5,5 C1.11928813,5 0,3.88071187 0,2.5 C0,1.11928813 1.11928813,0 2.5,0 C3.88071187,0 5,1.11928813 5,2.5 C5,3.88071187 3.88071187,5 2.5,5 Z M10.5,5 C9.11928813,5 8,3.88071187 8,2.5 C8,1.11928813 9.11928813,0 10.5,0 C11.8807119,0 13,1.11928813 13,2.5 C13,3.88071187 11.8807119,5 10.5,5 Z M18.5,5 C17.1192881,5 16,3.88071187 16,2.5 C16,1.11928813 17.1192881,0 18.5,0 C19.8807119,0 21,1.11928813 21,2.5 C21,3.88071187 19.8807119,5 18.5,5 Z" opacity=".499" transform="translate(5 6)"/>
    <g transform="translate(45 91)">
      <g transform="translate(0 6)">
        <rect width="91" height="11" fill="#58A8F7" opacity=".499" rx="2"/>
        <rect width="89" height="9" x="1" y="1" fill="#FFF" rx="1"/>
      </g>
      <polygon fill="#58A8F7" points="0 0 20 0 20 3 0 3" opacity=".197"/>
    </g>
    <g transform="translate(45 118)">
      <g transform="translate(0 6)">
        <rect width="91" height="11" fill="#58A8F7" opacity=".499" rx="2"/>
        <rect width="89" height="9" x="1" y="1" fill="#FFF" rx="1"/>
      </g>
      <polygon fill="#58A8F7" points="0 0 20 0 20 3 0 3" opacity=".197"/>
    </g>
    <g transform="translate(45 145)">
      <g transform="translate(0 6)">
        <rect width="43" height="11" fill="#58A8F7" opacity=".499" rx="2"/>
        <rect width="41" height="9" x="1" y="1" fill="#FFF" rx="1"/>
      </g>
      <polygon fill="#58A8F7" points="0 0 20 0 20 3 0 3" opacity=".197"/>
    </g>
    <g transform="translate(93 145)">
      <g transform="translate(0 6)">
        <rect width="43" height="11" fill="#58A8F7" opacity=".499" rx="2"/>
        <rect width="41" height="9" x="1" y="1" fill="#FFF" rx="1"/>
      </g>
      <polygon fill="#58A8F7" points="0 0 20 0 20 3 0 3" opacity=".197"/>
    </g>
    <polygon fill="#58A8F7" points="0 0 50 0 50 8 0 8" opacity=".499" transform="translate(65 36)"/>
    <g transform="translate(45 64)">
      <g transform="translate(0 6)">
        <rect width="91" height="11" fill="#58A8F7" opacity=".499" rx="2"/>
        <rect width="89" height="9" x="1" y="1" fill="#FFF" rx="1"/>
        <polygon fill="#58A8F7" points="0 0 53 0 53 3 0 3" opacity=".197" transform="translate(4 4)"/>
        <polygon fill="#0D87FF" points="2.5 3 0 0 5 0" transform="translate(81 4)"/>
      </g>
      <polygon fill="#58A8F7" points="0 0 32 0 32 3 0 3" opacity=".197"/>
    </g>
  </g>
</svg></g></g></g><rect x="-1" y="-1" rx="3" ry="3" width="182" height="230" fill="none" stroke="#A2CEF9" stroke-width="2"/><g transform="translate(0,206)"><g><text x="90" y="4" text-anchor="middle" font-family="Roboto,sans-serif" font-size="14px" fill="#52565f">Adding Post Form</text></g></g></g><g transform="translate(1010, 586)"><rect x="0" y="0" rx="2" ry="2" width="180" height="228" fill="#ffffff"/><g><g><g transform="translate( 0, 0 )"><svg xmlns="http://www.w3.org/2000/svg" xmlns:xlink="http://www.w3.org/1999/xlink" width="180" height="185" viewBox="0 0 180 185">
  <defs>
    <path id="h2zg3jy5lv7-news_list-a" d="M0,1.99508929 C0,0.893231902 0.897026226,0 2.00494659,0 L21.9950534,0 C23.1023548,0 24,0.892622799 24,1.99508929 L24,16.0049107 C24,17.1067681 23.1029738,18 21.9950534,18 L2.00494659,18 C0.897645164,18 0,17.1073772 0,16.0049107 L0,1.99508929 Z"/>
    <path id="h2zg3jy5lv7-news_list-c" d="M0,1.99508929 C0,0.893231902 0.897026226,0 2.00494659,0 L21.9950534,0 C23.1023548,0 24,0.892622799 24,1.99508929 L24,16.0049107 C24,17.1067681 23.1029738,18 21.9950534,18 L2.00494659,18 C0.897645164,18 0,17.1073772 0,16.0049107 L0,1.99508929 Z"/>
    <path id="h2zg3jy5lv7-news_list-e" d="M0,1.99508929 C0,0.893231902 0.897026226,0 2.00494659,0 L21.9950534,0 C23.1023548,0 24,0.892622799 24,1.99508929 L24,16.0049107 C24,17.1067681 23.1029738,18 21.9950534,18 L2.00494659,18 C0.897645164,18 0,17.1073772 0,16.0049107 L0,1.99508929 Z"/>
    <path id="h2zg3jy5lv7-news_list-g" d="M0,1.99508929 C0,0.893231902 0.897026226,0 2.00494659,0 L21.9950534,0 C23.1023548,0 24,0.892622799 24,1.99508929 L24,16.0049107 C24,17.1067681 23.1029738,18 21.9950534,18 L2.00494659,18 C0.897645164,18 0,17.1073772 0,16.0049107 L0,1.99508929 Z"/>
  </defs>
  <g fill="none" fill-rule="evenodd">
    <path fill="#58A8F7" d="M0,2.99971296 C0,1.34301724 1.34537458,0 2.99263929,0 L177.007361,0 C178.66015,0 180,1.34382565 180,2.99971296 L180,185 L0,185 L0,2.99971296 Z" opacity=".097"/>
    <path fill="#58A8F7" d="M0,3.00947762 C0,1.34738902 1.34537458,0 2.99263929,0 L177.007361,0 C178.66015,0 180,1.33663106 180,3.00947762 L180,16 L0,16 L0,3.00947762 Z" opacity=".197"/>
    <path fill="#0D87FF" d="M2.5,5 C1.11928813,5 0,3.88071187 0,2.5 C0,1.11928813 1.11928813,0 2.5,0 C3.88071187,0 5,1.11928813 5,2.5 C5,3.88071187 3.88071187,5 2.5,5 Z M10.5,5 C9.11928813,5 8,3.88071187 8,2.5 C8,1.11928813 9.11928813,0 10.5,0 C11.8807119,0 13,1.11928813 13,2.5 C13,3.88071187 11.8807119,5 10.5,5 Z M18.5,5 C17.1192881,5 16,3.88071187 16,2.5 C16,1.11928813 17.1192881,0 18.5,0 C19.8807119,0 21,1.11928813 21,2.5 C21,3.88071187 19.8807119,5 18.5,5 Z" opacity=".499" transform="translate(5 6)"/>
    <polygon fill="#58A8F7" points="0 0 14 0 14 3 0 3" opacity=".197" transform="translate(44 36)"/>
    <polygon fill="#58A8F7" points="0 0 70 0 70 5 0 5" opacity=".499" transform="translate(44 42)"/>
    <polygon fill="#58A8F7" points="0 0 20 0 20 5 0 5" opacity=".499" transform="translate(119 42)"/>
    <g fill="#58A8F7" opacity=".197" transform="translate(44 52)">
      <polygon points="0 0 116 0 116 3 0 3"/>
      <polygon points="0 0 70 0 70 3 0 3" transform="translate(0 7)"/>
    </g>
    <g transform="translate(10 36)">
      <path fill="#58A8F7" d="M0,1.99508929 C0,0.893231902 0.897026226,0 2.00494659,0 L21.9950534,0 C23.1023548,0 24,0.892622799 24,1.99508929 L24,16.0049107 C24,17.1067681 23.1029738,18 21.9950534,18 L2.00494659,18 C0.897645164,18 0,17.1073772 0,16.0049107 L0,1.99508929 Z" opacity=".197"/>
      <mask id="h2zg3jy5lv7-news_list-b" fill="#fff">
        <use xlink:href="#h2zg3jy5lv7-news_list-a"/>
      </mask>
      <path fill="#58A8F7" d="M20.5714286,9.81818182 C25.2050919,9.81818182 28.0565771,13.3115424 32.5714286,18 C28.8882603,18 13.1203921,18 8.57142857,18 C12.4922207,14.1389173 15.9377652,9.81818182 20.5714286,9.81818182 Z" mask="url(#h2zg3jy5lv7-news_list-b)" opacity=".197"/>
      <path fill="#0D87FF" d="M3.42857143,8.18181818 C8.31958315,8.18181818 11.9126984,12.8633949 16.2857143,18 C10.5479809,18 -3.34693878,18 -8.57142857,18 C-4.34737299,12.8633949 -1.4624403,8.18181818 3.42857143,8.18181818 Z" mask="url(#h2zg3jy5lv7-news_list-b)" opacity=".198"/>
      <circle cx="12.857" cy="5.727" r="3" fill="#58A8F7" mask="url(#h2zg3jy5lv7-news_list-b)" opacity=".499"/>
    </g>
    <polygon fill="#58A8F7" points="0 0 14 0 14 3 0 3" opacity=".197" transform="translate(44 72)"/>
    <polygon fill="#58A8F7" points="0 0 40 0 40 5 0 5" opacity=".499" transform="translate(44 78)"/>
    <polygon fill="#58A8F7" points="0 0 50 0 50 5 0 5" opacity=".499" transform="translate(89 78)"/>
    <g fill="#58A8F7" opacity=".197" transform="translate(44 88)">
      <polygon points="0 0 116 0 116 3 0 3"/>
      <polygon points="0 0 70 0 70 3 0 3" transform="translate(0 7)"/>
    </g>
    <g transform="translate(10 72)">
      <path fill="#58A8F7" d="M0,1.99508929 C0,0.893231902 0.897026226,0 2.00494659,0 L21.9950534,0 C23.1023548,0 24,0.892622799 24,1.99508929 L24,16.0049107 C24,17.1067681 23.1029738,18 21.9950534,18 L2.00494659,18 C0.897645164,18 0,17.1073772 0,16.0049107 L0,1.99508929 Z" opacity=".197"/>
      <mask id="h2zg3jy5lv7-news_list-d" fill="#fff">
        <use xlink:href="#h2zg3jy5lv7-news_list-c"/>
      </mask>
      <path fill="#58A8F7" d="M20.5714286,9.81818182 C25.2050919,9.81818182 28.0565771,13.3115424 32.5714286,18 C28.8882603,18 13.1203921,18 8.57142857,18 C12.4922207,14.1389173 15.9377652,9.81818182 20.5714286,9.81818182 Z" mask="url(#h2zg3jy5lv7-news_list-d)" opacity=".197"/>
      <path fill="#0D87FF" d="M3.42857143,8.18181818 C8.31958315,8.18181818 11.9126984,12.8633949 16.2857143,18 C10.5479809,18 -3.34693878,18 -8.57142857,18 C-4.34737299,12.8633949 -1.4624403,8.18181818 3.42857143,8.18181818 Z" mask="url(#h2zg3jy5lv7-news_list-d)" opacity=".198"/>
      <circle cx="12.857" cy="5.727" r="3" fill="#58A8F7" mask="url(#h2zg3jy5lv7-news_list-d)" opacity=".499"/>
    </g>
    <polygon fill="#58A8F7" points="0 0 14 0 14 3 0 3" opacity=".197" transform="translate(44 108)"/>
    <polygon fill="#58A8F7" points="0 0 20 0 20 5 0 5" opacity=".499" transform="translate(44 114)"/>
    <polygon fill="#58A8F7" points="0 0 50 0 50 5 0 5" opacity=".499" transform="translate(69 114)"/>
    <polygon fill="#58A8F7" points="0 0 21 0 21 5 0 5" opacity=".499" transform="translate(124 114)"/>
    <g fill="#58A8F7" opacity=".197" transform="translate(44 124)">
      <polygon points="0 0 116 0 116 3 0 3"/>
      <polygon points="0 0 70 0 70 3 0 3" transform="translate(0 7)"/>
    </g>
    <g transform="translate(10 108)">
      <path fill="#58A8F7" d="M0,1.99508929 C0,0.893231902 0.897026226,0 2.00494659,0 L21.9950534,0 C23.1023548,0 24,0.892622799 24,1.99508929 L24,16.0049107 C24,17.1067681 23.1029738,18 21.9950534,18 L2.00494659,18 C0.897645164,18 0,17.1073772 0,16.0049107 L0,1.99508929 Z" opacity=".197"/>
      <mask id="h2zg3jy5lv7-news_list-f" fill="#fff">
        <use xlink:href="#h2zg3jy5lv7-news_list-e"/>
      </mask>
      <path fill="#58A8F7" d="M20.5714286,9.81818182 C25.2050919,9.81818182 28.0565771,13.3115424 32.5714286,18 C28.8882603,18 13.1203921,18 8.57142857,18 C12.4922207,14.1389173 15.9377652,9.81818182 20.5714286,9.81818182 Z" mask="url(#h2zg3jy5lv7-news_list-f)" opacity=".197"/>
      <path fill="#0D87FF" d="M3.42857143,8.18181818 C8.31958315,8.18181818 11.9126984,12.8633949 16.2857143,18 C10.5479809,18 -3.34693878,18 -8.57142857,18 C-4.34737299,12.8633949 -1.4624403,8.18181818 3.42857143,8.18181818 Z" mask="url(#h2zg3jy5lv7-news_list-f)" opacity=".198"/>
      <circle cx="12.857" cy="5.727" r="3" fill="#58A8F7" mask="url(#h2zg3jy5lv7-news_list-f)" opacity=".499"/>
    </g>
    <polygon fill="#58A8F7" points="0 0 14 0 14 3 0 3" opacity=".197" transform="translate(44 144)"/>
    <polygon fill="#58A8F7" points="0 0 50 0 50 5 0 5" opacity=".499" transform="translate(44 150)"/>
    <polygon fill="#58A8F7" points="0 0 30 0 30 5 0 5" opacity=".499" transform="translate(99 150)"/>
    <g fill="#58A8F7" opacity=".197" transform="translate(44 160)">
      <polygon points="0 0 116 0 116 3 0 3"/>
      <polygon points="0 0 70 0 70 3 0 3" transform="translate(0 7)"/>
    </g>
    <g transform="translate(10 144)">
      <path fill="#58A8F7" d="M0,1.99508929 C0,0.893231902 0.897026226,0 2.00494659,0 L21.9950534,0 C23.1023548,0 24,0.892622799 24,1.99508929 L24,16.0049107 C24,17.1067681 23.1029738,18 21.9950534,18 L2.00494659,18 C0.897645164,18 0,17.1073772 0,16.0049107 L0,1.99508929 Z" opacity=".197"/>
      <mask id="h2zg3jy5lv7-news_list-h" fill="#fff">
        <use xlink:href="#h2zg3jy5lv7-news_list-g"/>
      </mask>
      <path fill="#58A8F7" d="M20.5714286,9.81818182 C25.2050919,9.81818182 28.0565771,13.3115424 32.5714286,18 C28.8882603,18 13.1203921,18 8.57142857,18 C12.4922207,14.1389173 15.9377652,9.81818182 20.5714286,9.81818182 Z" mask="url(#h2zg3jy5lv7-news_list-h)" opacity=".197"/>
      <path fill="#0D87FF" d="M3.42857143,8.18181818 C8.31958315,8.18181818 11.9126984,12.8633949 16.2857143,18 C10.5479809,18 -3.34693878,18 -8.57142857,18 C-4.34737299,12.8633949 -1.4624403,8.18181818 3.42857143,8.18181818 Z" mask="url(#h2zg3jy5lv7-news_list-h)" opacity=".198"/>
      <circle cx="12.857" cy="5.727" r="3" fill="#58A8F7" mask="url(#h2zg3jy5lv7-news_list-h)" opacity=".499"/>
    </g>
  </g>
</svg></g></g></g><rect x="-1" y="-1" rx="3" ry="3" width="182" height="230" fill="none" stroke="#A2CEF9" stroke-width="2"/><g transform="translate(0,206)"><g><text x="90" y="4" text-anchor="middle" font-family="Roboto,sans-serif" font-size="14px" fill="#52565f">Posts list</text></g></g></g><g transform="translate(1210, 586)"><rect x="0" y="0" rx="2" ry="2" width="180" height="228" fill="#ffffff"/><g><g><g transform="translate( 0, 0 )"><svg xmlns="http://www.w3.org/2000/svg" xmlns:xlink="http://www.w3.org/1999/xlink" width="180" height="185" viewBox="0 0 180 185">
  <defs>
    <path id="0ujf2t06xo4-news_list-a" d="M0,1.99508929 C0,0.893231902 0.897026226,0 2.00494659,0 L21.9950534,0 C23.1023548,0 24,0.892622799 24,1.99508929 L24,16.0049107 C24,17.1067681 23.1029738,18 21.9950534,18 L2.00494659,18 C0.897645164,18 0,17.1073772 0,16.0049107 L0,1.99508929 Z"/>
    <path id="0ujf2t06xo4-news_list-c" d="M0,1.99508929 C0,0.893231902 0.897026226,0 2.00494659,0 L21.9950534,0 C23.1023548,0 24,0.892622799 24,1.99508929 L24,16.0049107 C24,17.1067681 23.1029738,18 21.9950534,18 L2.00494659,18 C0.897645164,18 0,17.1073772 0,16.0049107 L0,1.99508929 Z"/>
    <path id="0ujf2t06xo4-news_list-e" d="M0,1.99508929 C0,0.893231902 0.897026226,0 2.00494659,0 L21.9950534,0 C23.1023548,0 24,0.892622799 24,1.99508929 L24,16.0049107 C24,17.1067681 23.1029738,18 21.9950534,18 L2.00494659,18 C0.897645164,18 0,17.1073772 0,16.0049107 L0,1.99508929 Z"/>
    <path id="0ujf2t06xo4-news_list-g" d="M0,1.99508929 C0,0.893231902 0.897026226,0 2.00494659,0 L21.9950534,0 C23.1023548,0 24,0.892622799 24,1.99508929 L24,16.0049107 C24,17.1067681 23.1029738,18 21.9950534,18 L2.00494659,18 C0.897645164,18 0,17.1073772 0,16.0049107 L0,1.99508929 Z"/>
  </defs>
  <g fill="none" fill-rule="evenodd">
    <path fill="#58A8F7" d="M0,2.99971296 C0,1.34301724 1.34537458,0 2.99263929,0 L177.007361,0 C178.66015,0 180,1.34382565 180,2.99971296 L180,185 L0,185 L0,2.99971296 Z" opacity=".097"/>
    <path fill="#58A8F7" d="M0,3.00947762 C0,1.34738902 1.34537458,0 2.99263929,0 L177.007361,0 C178.66015,0 180,1.33663106 180,3.00947762 L180,16 L0,16 L0,3.00947762 Z" opacity=".197"/>
    <path fill="#0D87FF" d="M2.5,5 C1.11928813,5 0,3.88071187 0,2.5 C0,1.11928813 1.11928813,0 2.5,0 C3.88071187,0 5,1.11928813 5,2.5 C5,3.88071187 3.88071187,5 2.5,5 Z M10.5,5 C9.11928813,5 8,3.88071187 8,2.5 C8,1.11928813 9.11928813,0 10.5,0 C11.8807119,0 13,1.11928813 13,2.5 C13,3.88071187 11.8807119,5 10.5,5 Z M18.5,5 C17.1192881,5 16,3.88071187 16,2.5 C16,1.11928813 17.1192881,0 18.5,0 C19.8807119,0 21,1.11928813 21,2.5 C21,3.88071187 19.8807119,5 18.5,5 Z" opacity=".499" transform="translate(5 6)"/>
    <polygon fill="#58A8F7" points="0 0 14 0 14 3 0 3" opacity=".197" transform="translate(44 36)"/>
    <polygon fill="#58A8F7" points="0 0 70 0 70 5 0 5" opacity=".499" transform="translate(44 42)"/>
    <polygon fill="#58A8F7" points="0 0 20 0 20 5 0 5" opacity=".499" transform="translate(119 42)"/>
    <g fill="#58A8F7" opacity=".197" transform="translate(44 52)">
      <polygon points="0 0 116 0 116 3 0 3"/>
      <polygon points="0 0 70 0 70 3 0 3" transform="translate(0 7)"/>
    </g>
    <g transform="translate(10 36)">
      <path fill="#58A8F7" d="M0,1.99508929 C0,0.893231902 0.897026226,0 2.00494659,0 L21.9950534,0 C23.1023548,0 24,0.892622799 24,1.99508929 L24,16.0049107 C24,17.1067681 23.1029738,18 21.9950534,18 L2.00494659,18 C0.897645164,18 0,17.1073772 0,16.0049107 L0,1.99508929 Z" opacity=".197"/>
      <mask id="0ujf2t06xo4-news_list-b" fill="#fff">
        <use xlink:href="#0ujf2t06xo4-news_list-a"/>
      </mask>
      <path fill="#58A8F7" d="M20.5714286,9.81818182 C25.2050919,9.81818182 28.0565771,13.3115424 32.5714286,18 C28.8882603,18 13.1203921,18 8.57142857,18 C12.4922207,14.1389173 15.9377652,9.81818182 20.5714286,9.81818182 Z" mask="url(#0ujf2t06xo4-news_list-b)" opacity=".197"/>
      <path fill="#0D87FF" d="M3.42857143,8.18181818 C8.31958315,8.18181818 11.9126984,12.8633949 16.2857143,18 C10.5479809,18 -3.34693878,18 -8.57142857,18 C-4.34737299,12.8633949 -1.4624403,8.18181818 3.42857143,8.18181818 Z" mask="url(#0ujf2t06xo4-news_list-b)" opacity=".198"/>
      <circle cx="12.857" cy="5.727" r="3" fill="#58A8F7" mask="url(#0ujf2t06xo4-news_list-b)" opacity=".499"/>
    </g>
    <polygon fill="#58A8F7" points="0 0 14 0 14 3 0 3" opacity=".197" transform="translate(44 72)"/>
    <polygon fill="#58A8F7" points="0 0 40 0 40 5 0 5" opacity=".499" transform="translate(44 78)"/>
    <polygon fill="#58A8F7" points="0 0 50 0 50 5 0 5" opacity=".499" transform="translate(89 78)"/>
    <g fill="#58A8F7" opacity=".197" transform="translate(44 88)">
      <polygon points="0 0 116 0 116 3 0 3"/>
      <polygon points="0 0 70 0 70 3 0 3" transform="translate(0 7)"/>
    </g>
    <g transform="translate(10 72)">
      <path fill="#58A8F7" d="M0,1.99508929 C0,0.893231902 0.897026226,0 2.00494659,0 L21.9950534,0 C23.1023548,0 24,0.892622799 24,1.99508929 L24,16.0049107 C24,17.1067681 23.1029738,18 21.9950534,18 L2.00494659,18 C0.897645164,18 0,17.1073772 0,16.0049107 L0,1.99508929 Z" opacity=".197"/>
      <mask id="0ujf2t06xo4-news_list-d" fill="#fff">
        <use xlink:href="#0ujf2t06xo4-news_list-c"/>
      </mask>
      <path fill="#58A8F7" d="M20.5714286,9.81818182 C25.2050919,9.81818182 28.0565771,13.3115424 32.5714286,18 C28.8882603,18 13.1203921,18 8.57142857,18 C12.4922207,14.1389173 15.9377652,9.81818182 20.5714286,9.81818182 Z" mask="url(#0ujf2t06xo4-news_list-d)" opacity=".197"/>
      <path fill="#0D87FF" d="M3.42857143,8.18181818 C8.31958315,8.18181818 11.9126984,12.8633949 16.2857143,18 C10.5479809,18 -3.34693878,18 -8.57142857,18 C-4.34737299,12.8633949 -1.4624403,8.18181818 3.42857143,8.18181818 Z" mask="url(#0ujf2t06xo4-news_list-d)" opacity=".198"/>
      <circle cx="12.857" cy="5.727" r="3" fill="#58A8F7" mask="url(#0ujf2t06xo4-news_list-d)" opacity=".499"/>
    </g>
    <polygon fill="#58A8F7" points="0 0 14 0 14 3 0 3" opacity=".197" transform="translate(44 108)"/>
    <polygon fill="#58A8F7" points="0 0 20 0 20 5 0 5" opacity=".499" transform="translate(44 114)"/>
    <polygon fill="#58A8F7" points="0 0 50 0 50 5 0 5" opacity=".499" transform="translate(69 114)"/>
    <polygon fill="#58A8F7" points="0 0 21 0 21 5 0 5" opacity=".499" transform="translate(124 114)"/>
    <g fill="#58A8F7" opacity=".197" transform="translate(44 124)">
      <polygon points="0 0 116 0 116 3 0 3"/>
      <polygon points="0 0 70 0 70 3 0 3" transform="translate(0 7)"/>
    </g>
    <g transform="translate(10 108)">
      <path fill="#58A8F7" d="M0,1.99508929 C0,0.893231902 0.897026226,0 2.00494659,0 L21.9950534,0 C23.1023548,0 24,0.892622799 24,1.99508929 L24,16.0049107 C24,17.1067681 23.1029738,18 21.9950534,18 L2.00494659,18 C0.897645164,18 0,17.1073772 0,16.0049107 L0,1.99508929 Z" opacity=".197"/>
      <mask id="0ujf2t06xo4-news_list-f" fill="#fff">
        <use xlink:href="#0ujf2t06xo4-news_list-e"/>
      </mask>
      <path fill="#58A8F7" d="M20.5714286,9.81818182 C25.2050919,9.81818182 28.0565771,13.3115424 32.5714286,18 C28.8882603,18 13.1203921,18 8.57142857,18 C12.4922207,14.1389173 15.9377652,9.81818182 20.5714286,9.81818182 Z" mask="url(#0ujf2t06xo4-news_list-f)" opacity=".197"/>
      <path fill="#0D87FF" d="M3.42857143,8.18181818 C8.31958315,8.18181818 11.9126984,12.8633949 16.2857143,18 C10.5479809,18 -3.34693878,18 -8.57142857,18 C-4.34737299,12.8633949 -1.4624403,8.18181818 3.42857143,8.18181818 Z" mask="url(#0ujf2t06xo4-news_list-f)" opacity=".198"/>
      <circle cx="12.857" cy="5.727" r="3" fill="#58A8F7" mask="url(#0ujf2t06xo4-news_list-f)" opacity=".499"/>
    </g>
    <polygon fill="#58A8F7" points="0 0 14 0 14 3 0 3" opacity=".197" transform="translate(44 144)"/>
    <polygon fill="#58A8F7" points="0 0 50 0 50 5 0 5" opacity=".499" transform="translate(44 150)"/>
    <polygon fill="#58A8F7" points="0 0 30 0 30 5 0 5" opacity=".499" transform="translate(99 150)"/>
    <g fill="#58A8F7" opacity=".197" transform="translate(44 160)">
      <polygon points="0 0 116 0 116 3 0 3"/>
      <polygon points="0 0 70 0 70 3 0 3" transform="translate(0 7)"/>
    </g>
    <g transform="translate(10 144)">
      <path fill="#58A8F7" d="M0,1.99508929 C0,0.893231902 0.897026226,0 2.00494659,0 L21.9950534,0 C23.1023548,0 24,0.892622799 24,1.99508929 L24,16.0049107 C24,17.1067681 23.1029738,18 21.9950534,18 L2.00494659,18 C0.897645164,18 0,17.1073772 0,16.0049107 L0,1.99508929 Z" opacity=".197"/>
      <mask id="0ujf2t06xo4-news_list-h" fill="#fff">
        <use xlink:href="#0ujf2t06xo4-news_list-g"/>
      </mask>
      <path fill="#58A8F7" d="M20.5714286,9.81818182 C25.2050919,9.81818182 28.0565771,13.3115424 32.5714286,18 C28.8882603,18 13.1203921,18 8.57142857,18 C12.4922207,14.1389173 15.9377652,9.81818182 20.5714286,9.81818182 Z" mask="url(#0ujf2t06xo4-news_list-h)" opacity=".197"/>
      <path fill="#0D87FF" d="M3.42857143,8.18181818 C8.31958315,8.18181818 11.9126984,12.8633949 16.2857143,18 C10.5479809,18 -3.34693878,18 -8.57142857,18 C-4.34737299,12.8633949 -1.4624403,8.18181818 3.42857143,8.18181818 Z" mask="url(#0ujf2t06xo4-news_list-h)" opacity=".198"/>
      <circle cx="12.857" cy="5.727" r="3" fill="#58A8F7" mask="url(#0ujf2t06xo4-news_list-h)" opacity=".499"/>
    </g>
  </g>
</svg></g></g></g><rect x="-1" y="-1" rx="3" ry="3" width="182" height="230" fill="none" stroke="#A2CEF9" stroke-width="2"/><g transform="translate(0,206)"><g><text x="90" y="4" text-anchor="middle" font-family="Roboto,sans-serif" font-size="14px" fill="#52565f">Comments list</text></g></g></g><g transform="translate(1410, 586)"><rect x="0" y="0" rx="2" ry="2" width="180" height="228" fill="#ffffff"/><g><g><g transform="translate( 0, 0 )"><svg xmlns="http://www.w3.org/2000/svg" xmlns:xlink="http://www.w3.org/1999/xlink" width="180" height="185" viewBox="0 0 180 185">
  <defs>
    <path id="a9xpgs92ueh-news_list-a" d="M0,1.99508929 C0,0.893231902 0.897026226,0 2.00494659,0 L21.9950534,0 C23.1023548,0 24,0.892622799 24,1.99508929 L24,16.0049107 C24,17.1067681 23.1029738,18 21.9950534,18 L2.00494659,18 C0.897645164,18 0,17.1073772 0,16.0049107 L0,1.99508929 Z"/>
    <path id="a9xpgs92ueh-news_list-c" d="M0,1.99508929 C0,0.893231902 0.897026226,0 2.00494659,0 L21.9950534,0 C23.1023548,0 24,0.892622799 24,1.99508929 L24,16.0049107 C24,17.1067681 23.1029738,18 21.9950534,18 L2.00494659,18 C0.897645164,18 0,17.1073772 0,16.0049107 L0,1.99508929 Z"/>
    <path id="a9xpgs92ueh-news_list-e" d="M0,1.99508929 C0,0.893231902 0.897026226,0 2.00494659,0 L21.9950534,0 C23.1023548,0 24,0.892622799 24,1.99508929 L24,16.0049107 C24,17.1067681 23.1029738,18 21.9950534,18 L2.00494659,18 C0.897645164,18 0,17.1073772 0,16.0049107 L0,1.99508929 Z"/>
    <path id="a9xpgs92ueh-news_list-g" d="M0,1.99508929 C0,0.893231902 0.897026226,0 2.00494659,0 L21.9950534,0 C23.1023548,0 24,0.892622799 24,1.99508929 L24,16.0049107 C24,17.1067681 23.1029738,18 21.9950534,18 L2.00494659,18 C0.897645164,18 0,17.1073772 0,16.0049107 L0,1.99508929 Z"/>
  </defs>
  <g fill="none" fill-rule="evenodd">
    <path fill="#58A8F7" d="M0,2.99971296 C0,1.34301724 1.34537458,0 2.99263929,0 L177.007361,0 C178.66015,0 180,1.34382565 180,2.99971296 L180,185 L0,185 L0,2.99971296 Z" opacity=".097"/>
    <path fill="#58A8F7" d="M0,3.00947762 C0,1.34738902 1.34537458,0 2.99263929,0 L177.007361,0 C178.66015,0 180,1.33663106 180,3.00947762 L180,16 L0,16 L0,3.00947762 Z" opacity=".197"/>
    <path fill="#0D87FF" d="M2.5,5 C1.11928813,5 0,3.88071187 0,2.5 C0,1.11928813 1.11928813,0 2.5,0 C3.88071187,0 5,1.11928813 5,2.5 C5,3.88071187 3.88071187,5 2.5,5 Z M10.5,5 C9.11928813,5 8,3.88071187 8,2.5 C8,1.11928813 9.11928813,0 10.5,0 C11.8807119,0 13,1.11928813 13,2.5 C13,3.88071187 11.8807119,5 10.5,5 Z M18.5,5 C17.1192881,5 16,3.88071187 16,2.5 C16,1.11928813 17.1192881,0 18.5,0 C19.8807119,0 21,1.11928813 21,2.5 C21,3.88071187 19.8807119,5 18.5,5 Z" opacity=".499" transform="translate(5 6)"/>
    <polygon fill="#58A8F7" points="0 0 14 0 14 3 0 3" opacity=".197" transform="translate(44 36)"/>
    <polygon fill="#58A8F7" points="0 0 70 0 70 5 0 5" opacity=".499" transform="translate(44 42)"/>
    <polygon fill="#58A8F7" points="0 0 20 0 20 5 0 5" opacity=".499" transform="translate(119 42)"/>
    <g fill="#58A8F7" opacity=".197" transform="translate(44 52)">
      <polygon points="0 0 116 0 116 3 0 3"/>
      <polygon points="0 0 70 0 70 3 0 3" transform="translate(0 7)"/>
    </g>
    <g transform="translate(10 36)">
      <path fill="#58A8F7" d="M0,1.99508929 C0,0.893231902 0.897026226,0 2.00494659,0 L21.9950534,0 C23.1023548,0 24,0.892622799 24,1.99508929 L24,16.0049107 C24,17.1067681 23.1029738,18 21.9950534,18 L2.00494659,18 C0.897645164,18 0,17.1073772 0,16.0049107 L0,1.99508929 Z" opacity=".197"/>
      <mask id="a9xpgs92ueh-news_list-b" fill="#fff">
        <use xlink:href="#a9xpgs92ueh-news_list-a"/>
      </mask>
      <path fill="#58A8F7" d="M20.5714286,9.81818182 C25.2050919,9.81818182 28.0565771,13.3115424 32.5714286,18 C28.8882603,18 13.1203921,18 8.57142857,18 C12.4922207,14.1389173 15.9377652,9.81818182 20.5714286,9.81818182 Z" mask="url(#a9xpgs92ueh-news_list-b)" opacity=".197"/>
      <path fill="#0D87FF" d="M3.42857143,8.18181818 C8.31958315,8.18181818 11.9126984,12.8633949 16.2857143,18 C10.5479809,18 -3.34693878,18 -8.57142857,18 C-4.34737299,12.8633949 -1.4624403,8.18181818 3.42857143,8.18181818 Z" mask="url(#a9xpgs92ueh-news_list-b)" opacity=".198"/>
      <circle cx="12.857" cy="5.727" r="3" fill="#58A8F7" mask="url(#a9xpgs92ueh-news_list-b)" opacity=".499"/>
    </g>
    <polygon fill="#58A8F7" points="0 0 14 0 14 3 0 3" opacity=".197" transform="translate(44 72)"/>
    <polygon fill="#58A8F7" points="0 0 40 0 40 5 0 5" opacity=".499" transform="translate(44 78)"/>
    <polygon fill="#58A8F7" points="0 0 50 0 50 5 0 5" opacity=".499" transform="translate(89 78)"/>
    <g fill="#58A8F7" opacity=".197" transform="translate(44 88)">
      <polygon points="0 0 116 0 116 3 0 3"/>
      <polygon points="0 0 70 0 70 3 0 3" transform="translate(0 7)"/>
    </g>
    <g transform="translate(10 72)">
      <path fill="#58A8F7" d="M0,1.99508929 C0,0.893231902 0.897026226,0 2.00494659,0 L21.9950534,0 C23.1023548,0 24,0.892622799 24,1.99508929 L24,16.0049107 C24,17.1067681 23.1029738,18 21.9950534,18 L2.00494659,18 C0.897645164,18 0,17.1073772 0,16.0049107 L0,1.99508929 Z" opacity=".197"/>
      <mask id="a9xpgs92ueh-news_list-d" fill="#fff">
        <use xlink:href="#a9xpgs92ueh-news_list-c"/>
      </mask>
      <path fill="#58A8F7" d="M20.5714286,9.81818182 C25.2050919,9.81818182 28.0565771,13.3115424 32.5714286,18 C28.8882603,18 13.1203921,18 8.57142857,18 C12.4922207,14.1389173 15.9377652,9.81818182 20.5714286,9.81818182 Z" mask="url(#a9xpgs92ueh-news_list-d)" opacity=".197"/>
      <path fill="#0D87FF" d="M3.42857143,8.18181818 C8.31958315,8.18181818 11.9126984,12.8633949 16.2857143,18 C10.5479809,18 -3.34693878,18 -8.57142857,18 C-4.34737299,12.8633949 -1.4624403,8.18181818 3.42857143,8.18181818 Z" mask="url(#a9xpgs92ueh-news_list-d)" opacity=".198"/>
      <circle cx="12.857" cy="5.727" r="3" fill="#58A8F7" mask="url(#a9xpgs92ueh-news_list-d)" opacity=".499"/>
    </g>
    <polygon fill="#58A8F7" points="0 0 14 0 14 3 0 3" opacity=".197" transform="translate(44 108)"/>
    <polygon fill="#58A8F7" points="0 0 20 0 20 5 0 5" opacity=".499" transform="translate(44 114)"/>
    <polygon fill="#58A8F7" points="0 0 50 0 50 5 0 5" opacity=".499" transform="translate(69 114)"/>
    <polygon fill="#58A8F7" points="0 0 21 0 21 5 0 5" opacity=".499" transform="translate(124 114)"/>
    <g fill="#58A8F7" opacity=".197" transform="translate(44 124)">
      <polygon points="0 0 116 0 116 3 0 3"/>
      <polygon points="0 0 70 0 70 3 0 3" transform="translate(0 7)"/>
    </g>
    <g transform="translate(10 108)">
      <path fill="#58A8F7" d="M0,1.99508929 C0,0.893231902 0.897026226,0 2.00494659,0 L21.9950534,0 C23.1023548,0 24,0.892622799 24,1.99508929 L24,16.0049107 C24,17.1067681 23.1029738,18 21.9950534,18 L2.00494659,18 C0.897645164,18 0,17.1073772 0,16.0049107 L0,1.99508929 Z" opacity=".197"/>
      <mask id="a9xpgs92ueh-news_list-f" fill="#fff">
        <use xlink:href="#a9xpgs92ueh-news_list-e"/>
      </mask>
      <path fill="#58A8F7" d="M20.5714286,9.81818182 C25.2050919,9.81818182 28.0565771,13.3115424 32.5714286,18 C28.8882603,18 13.1203921,18 8.57142857,18 C12.4922207,14.1389173 15.9377652,9.81818182 20.5714286,9.81818182 Z" mask="url(#a9xpgs92ueh-news_list-f)" opacity=".197"/>
      <path fill="#0D87FF" d="M3.42857143,8.18181818 C8.31958315,8.18181818 11.9126984,12.8633949 16.2857143,18 C10.5479809,18 -3.34693878,18 -8.57142857,18 C-4.34737299,12.8633949 -1.4624403,8.18181818 3.42857143,8.18181818 Z" mask="url(#a9xpgs92ueh-news_list-f)" opacity=".198"/>
      <circle cx="12.857" cy="5.727" r="3" fill="#58A8F7" mask="url(#a9xpgs92ueh-news_list-f)" opacity=".499"/>
    </g>
    <polygon fill="#58A8F7" points="0 0 14 0 14 3 0 3" opacity=".197" transform="translate(44 144)"/>
    <polygon fill="#58A8F7" points="0 0 50 0 50 5 0 5" opacity=".499" transform="translate(44 150)"/>
    <polygon fill="#58A8F7" points="0 0 30 0 30 5 0 5" opacity=".499" transform="translate(99 150)"/>
    <g fill="#58A8F7" opacity=".197" transform="translate(44 160)">
      <polygon points="0 0 116 0 116 3 0 3"/>
      <polygon points="0 0 70 0 70 3 0 3" transform="translate(0 7)"/>
    </g>
    <g transform="translate(10 144)">
      <path fill="#58A8F7" d="M0,1.99508929 C0,0.893231902 0.897026226,0 2.00494659,0 L21.9950534,0 C23.1023548,0 24,0.892622799 24,1.99508929 L24,16.0049107 C24,17.1067681 23.1029738,18 21.9950534,18 L2.00494659,18 C0.897645164,18 0,17.1073772 0,16.0049107 L0,1.99508929 Z" opacity=".197"/>
      <mask id="a9xpgs92ueh-news_list-h" fill="#fff">
        <use xlink:href="#a9xpgs92ueh-news_list-g"/>
      </mask>
      <path fill="#58A8F7" d="M20.5714286,9.81818182 C25.2050919,9.81818182 28.0565771,13.3115424 32.5714286,18 C28.8882603,18 13.1203921,18 8.57142857,18 C12.4922207,14.1389173 15.9377652,9.81818182 20.5714286,9.81818182 Z" mask="url(#a9xpgs92ueh-news_list-h)" opacity=".197"/>
      <path fill="#0D87FF" d="M3.42857143,8.18181818 C8.31958315,8.18181818 11.9126984,12.8633949 16.2857143,18 C10.5479809,18 -3.34693878,18 -8.57142857,18 C-4.34737299,12.8633949 -1.4624403,8.18181818 3.42857143,8.18181818 Z" mask="url(#a9xpgs92ueh-news_list-h)" opacity=".198"/>
      <circle cx="12.857" cy="5.727" r="3" fill="#58A8F7" mask="url(#a9xpgs92ueh-news_list-h)" opacity=".499"/>
    </g>
  </g>
</svg></g></g></g><rect x="-1" y="-1" rx="3" ry="3" width="182" height="230" fill="none" stroke="#A2CEF9" stroke-width="2"/><g transform="translate(0,206)"><g><text x="90" y="4" text-anchor="middle" font-family="Roboto,sans-serif" font-size="14px" fill="#52565f">Valid user list</text></g></g></g><g transform="translate(1610, 586)"><rect x="0" y="0" rx="2" ry="2" width="180" height="228" fill="#ffffff"/><g><g><g transform="translate( 0, 0 )"><svg xmlns="http://www.w3.org/2000/svg" xmlns:xlink="http://www.w3.org/1999/xlink" width="180" height="185" viewBox="0 0 180 185">
  <defs>
    <path id="kniqa4z0x6o-news_list-a" d="M0,1.99508929 C0,0.893231902 0.897026226,0 2.00494659,0 L21.9950534,0 C23.1023548,0 24,0.892622799 24,1.99508929 L24,16.0049107 C24,17.1067681 23.1029738,18 21.9950534,18 L2.00494659,18 C0.897645164,18 0,17.1073772 0,16.0049107 L0,1.99508929 Z"/>
    <path id="kniqa4z0x6o-news_list-c" d="M0,1.99508929 C0,0.893231902 0.897026226,0 2.00494659,0 L21.9950534,0 C23.1023548,0 24,0.892622799 24,1.99508929 L24,16.0049107 C24,17.1067681 23.1029738,18 21.9950534,18 L2.00494659,18 C0.897645164,18 0,17.1073772 0,16.0049107 L0,1.99508929 Z"/>
    <path id="kniqa4z0x6o-news_list-e" d="M0,1.99508929 C0,0.893231902 0.897026226,0 2.00494659,0 L21.9950534,0 C23.1023548,0 24,0.892622799 24,1.99508929 L24,16.0049107 C24,17.1067681 23.1029738,18 21.9950534,18 L2.00494659,18 C0.897645164,18 0,17.1073772 0,16.0049107 L0,1.99508929 Z"/>
    <path id="kniqa4z0x6o-news_list-g" d="M0,1.99508929 C0,0.893231902 0.897026226,0 2.00494659,0 L21.9950534,0 C23.1023548,0 24,0.892622799 24,1.99508929 L24,16.0049107 C24,17.1067681 23.1029738,18 21.9950534,18 L2.00494659,18 C0.897645164,18 0,17.1073772 0,16.0049107 L0,1.99508929 Z"/>
  </defs>
  <g fill="none" fill-rule="evenodd">
    <path fill="#58A8F7" d="M0,2.99971296 C0,1.34301724 1.34537458,0 2.99263929,0 L177.007361,0 C178.66015,0 180,1.34382565 180,2.99971296 L180,185 L0,185 L0,2.99971296 Z" opacity=".097"/>
    <path fill="#58A8F7" d="M0,3.00947762 C0,1.34738902 1.34537458,0 2.99263929,0 L177.007361,0 C178.66015,0 180,1.33663106 180,3.00947762 L180,16 L0,16 L0,3.00947762 Z" opacity=".197"/>
    <path fill="#0D87FF" d="M2.5,5 C1.11928813,5 0,3.88071187 0,2.5 C0,1.11928813 1.11928813,0 2.5,0 C3.88071187,0 5,1.11928813 5,2.5 C5,3.88071187 3.88071187,5 2.5,5 Z M10.5,5 C9.11928813,5 8,3.88071187 8,2.5 C8,1.11928813 9.11928813,0 10.5,0 C11.8807119,0 13,1.11928813 13,2.5 C13,3.88071187 11.8807119,5 10.5,5 Z M18.5,5 C17.1192881,5 16,3.88071187 16,2.5 C16,1.11928813 17.1192881,0 18.5,0 C19.8807119,0 21,1.11928813 21,2.5 C21,3.88071187 19.8807119,5 18.5,5 Z" opacity=".499" transform="translate(5 6)"/>
    <polygon fill="#58A8F7" points="0 0 14 0 14 3 0 3" opacity=".197" transform="translate(44 36)"/>
    <polygon fill="#58A8F7" points="0 0 70 0 70 5 0 5" opacity=".499" transform="translate(44 42)"/>
    <polygon fill="#58A8F7" points="0 0 20 0 20 5 0 5" opacity=".499" transform="translate(119 42)"/>
    <g fill="#58A8F7" opacity=".197" transform="translate(44 52)">
      <polygon points="0 0 116 0 116 3 0 3"/>
      <polygon points="0 0 70 0 70 3 0 3" transform="translate(0 7)"/>
    </g>
    <g transform="translate(10 36)">
      <path fill="#58A8F7" d="M0,1.99508929 C0,0.893231902 0.897026226,0 2.00494659,0 L21.9950534,0 C23.1023548,0 24,0.892622799 24,1.99508929 L24,16.0049107 C24,17.1067681 23.1029738,18 21.9950534,18 L2.00494659,18 C0.897645164,18 0,17.1073772 0,16.0049107 L0,1.99508929 Z" opacity=".197"/>
      <mask id="kniqa4z0x6o-news_list-b" fill="#fff">
        <use xlink:href="#kniqa4z0x6o-news_list-a"/>
      </mask>
      <path fill="#58A8F7" d="M20.5714286,9.81818182 C25.2050919,9.81818182 28.0565771,13.3115424 32.5714286,18 C28.8882603,18 13.1203921,18 8.57142857,18 C12.4922207,14.1389173 15.9377652,9.81818182 20.5714286,9.81818182 Z" mask="url(#kniqa4z0x6o-news_list-b)" opacity=".197"/>
      <path fill="#0D87FF" d="M3.42857143,8.18181818 C8.31958315,8.18181818 11.9126984,12.8633949 16.2857143,18 C10.5479809,18 -3.34693878,18 -8.57142857,18 C-4.34737299,12.8633949 -1.4624403,8.18181818 3.42857143,8.18181818 Z" mask="url(#kniqa4z0x6o-news_list-b)" opacity=".198"/>
      <circle cx="12.857" cy="5.727" r="3" fill="#58A8F7" mask="url(#kniqa4z0x6o-news_list-b)" opacity=".499"/>
    </g>
    <polygon fill="#58A8F7" points="0 0 14 0 14 3 0 3" opacity=".197" transform="translate(44 72)"/>
    <polygon fill="#58A8F7" points="0 0 40 0 40 5 0 5" opacity=".499" transform="translate(44 78)"/>
    <polygon fill="#58A8F7" points="0 0 50 0 50 5 0 5" opacity=".499" transform="translate(89 78)"/>
    <g fill="#58A8F7" opacity=".197" transform="translate(44 88)">
      <polygon points="0 0 116 0 116 3 0 3"/>
      <polygon points="0 0 70 0 70 3 0 3" transform="translate(0 7)"/>
    </g>
    <g transform="translate(10 72)">
      <path fill="#58A8F7" d="M0,1.99508929 C0,0.893231902 0.897026226,0 2.00494659,0 L21.9950534,0 C23.1023548,0 24,0.892622799 24,1.99508929 L24,16.0049107 C24,17.1067681 23.1029738,18 21.9950534,18 L2.00494659,18 C0.897645164,18 0,17.1073772 0,16.0049107 L0,1.99508929 Z" opacity=".197"/>
      <mask id="kniqa4z0x6o-news_list-d" fill="#fff">
        <use xlink:href="#kniqa4z0x6o-news_list-c"/>
      </mask>
      <path fill="#58A8F7" d="M20.5714286,9.81818182 C25.2050919,9.81818182 28.0565771,13.3115424 32.5714286,18 C28.8882603,18 13.1203921,18 8.57142857,18 C12.4922207,14.1389173 15.9377652,9.81818182 20.5714286,9.81818182 Z" mask="url(#kniqa4z0x6o-news_list-d)" opacity=".197"/>
      <path fill="#0D87FF" d="M3.42857143,8.18181818 C8.31958315,8.18181818 11.9126984,12.8633949 16.2857143,18 C10.5479809,18 -3.34693878,18 -8.57142857,18 C-4.34737299,12.8633949 -1.4624403,8.18181818 3.42857143,8.18181818 Z" mask="url(#kniqa4z0x6o-news_list-d)" opacity=".198"/>
      <circle cx="12.857" cy="5.727" r="3" fill="#58A8F7" mask="url(#kniqa4z0x6o-news_list-d)" opacity=".499"/>
    </g>
    <polygon fill="#58A8F7" points="0 0 14 0 14 3 0 3" opacity=".197" transform="translate(44 108)"/>
    <polygon fill="#58A8F7" points="0 0 20 0 20 5 0 5" opacity=".499" transform="translate(44 114)"/>
    <polygon fill="#58A8F7" points="0 0 50 0 50 5 0 5" opacity=".499" transform="translate(69 114)"/>
    <polygon fill="#58A8F7" points="0 0 21 0 21 5 0 5" opacity=".499" transform="translate(124 114)"/>
    <g fill="#58A8F7" opacity=".197" transform="translate(44 124)">
      <polygon points="0 0 116 0 116 3 0 3"/>
      <polygon points="0 0 70 0 70 3 0 3" transform="translate(0 7)"/>
    </g>
    <g transform="translate(10 108)">
      <path fill="#58A8F7" d="M0,1.99508929 C0,0.893231902 0.897026226,0 2.00494659,0 L21.9950534,0 C23.1023548,0 24,0.892622799 24,1.99508929 L24,16.0049107 C24,17.1067681 23.1029738,18 21.9950534,18 L2.00494659,18 C0.897645164,18 0,17.1073772 0,16.0049107 L0,1.99508929 Z" opacity=".197"/>
      <mask id="kniqa4z0x6o-news_list-f" fill="#fff">
        <use xlink:href="#kniqa4z0x6o-news_list-e"/>
      </mask>
      <path fill="#58A8F7" d="M20.5714286,9.81818182 C25.2050919,9.81818182 28.0565771,13.3115424 32.5714286,18 C28.8882603,18 13.1203921,18 8.57142857,18 C12.4922207,14.1389173 15.9377652,9.81818182 20.5714286,9.81818182 Z" mask="url(#kniqa4z0x6o-news_list-f)" opacity=".197"/>
      <path fill="#0D87FF" d="M3.42857143,8.18181818 C8.31958315,8.18181818 11.9126984,12.8633949 16.2857143,18 C10.5479809,18 -3.34693878,18 -8.57142857,18 C-4.34737299,12.8633949 -1.4624403,8.18181818 3.42857143,8.18181818 Z" mask="url(#kniqa4z0x6o-news_list-f)" opacity=".198"/>
      <circle cx="12.857" cy="5.727" r="3" fill="#58A8F7" mask="url(#kniqa4z0x6o-news_list-f)" opacity=".499"/>
    </g>
    <polygon fill="#58A8F7" points="0 0 14 0 14 3 0 3" opacity=".197" transform="translate(44 144)"/>
    <polygon fill="#58A8F7" points="0 0 50 0 50 5 0 5" opacity=".499" transform="translate(44 150)"/>
    <polygon fill="#58A8F7" points="0 0 30 0 30 5 0 5" opacity=".499" transform="translate(99 150)"/>
    <g fill="#58A8F7" opacity=".197" transform="translate(44 160)">
      <polygon points="0 0 116 0 116 3 0 3"/>
      <polygon points="0 0 70 0 70 3 0 3" transform="translate(0 7)"/>
    </g>
    <g transform="translate(10 144)">
      <path fill="#58A8F7" d="M0,1.99508929 C0,0.893231902 0.897026226,0 2.00494659,0 L21.9950534,0 C23.1023548,0 24,0.892622799 24,1.99508929 L24,16.0049107 C24,17.1067681 23.1029738,18 21.9950534,18 L2.00494659,18 C0.897645164,18 0,17.1073772 0,16.0049107 L0,1.99508929 Z" opacity=".197"/>
      <mask id="kniqa4z0x6o-news_list-h" fill="#fff">
        <use xlink:href="#kniqa4z0x6o-news_list-g"/>
      </mask>
      <path fill="#58A8F7" d="M20.5714286,9.81818182 C25.2050919,9.81818182 28.0565771,13.3115424 32.5714286,18 C28.8882603,18 13.1203921,18 8.57142857,18 C12.4922207,14.1389173 15.9377652,9.81818182 20.5714286,9.81818182 Z" mask="url(#kniqa4z0x6o-news_list-h)" opacity=".197"/>
      <path fill="#0D87FF" d="M3.42857143,8.18181818 C8.31958315,8.18181818 11.9126984,12.8633949 16.2857143,18 C10.5479809,18 -3.34693878,18 -8.57142857,18 C-4.34737299,12.8633949 -1.4624403,8.18181818 3.42857143,8.18181818 Z" mask="url(#kniqa4z0x6o-news_list-h)" opacity=".198"/>
      <circle cx="12.857" cy="5.727" r="3" fill="#58A8F7" mask="url(#kniqa4z0x6o-news_list-h)" opacity=".499"/>
    </g>
  </g>
</svg></g></g></g><rect x="-1" y="-1" rx="3" ry="3" width="182" height="230" fill="none" stroke="#A2CEF9" stroke-width="2"/><g transform="translate(0,206)"><g><text x="90" y="4" text-anchor="middle" font-family="Roboto,sans-serif" font-size="14px" fill="#52565f">Waiting validation user</text></g></g></g><g transform="translate(1210, 306)"><rect x="0" y="0" rx="2" ry="2" width="180" height="228" fill="#ffffff"/><g><g><g transform="translate( 0, 0 )"><svg xmlns="http://www.w3.org/2000/svg" xmlns:xlink="http://www.w3.org/1999/xlink" width="180" height="185" viewBox="0 0 180 185">
  <defs>
    <rect id="kyz49twnh7-article-a" width="160" height="82" rx="2"/>
  </defs>
  <g fill="none" fill-rule="evenodd">
    <path fill="#58A8F7" d="M0,2.99971296 C0,1.34301724 1.34537458,0 2.99263929,0 L177.007361,0 C178.66015,0 180,1.34382565 180,2.99971296 L180,185 L0,185 L0,2.99971296 Z" opacity=".097"/>
    <g transform="translate(10 26)">
      <rect width="160" height="82" fill="#58A8F7" opacity=".197" rx="2"/>
      <mask id="kyz49twnh7-article-b" fill="#fff">
        <use xlink:href="#kyz49twnh7-article-a"/>
      </mask>
      <use fill="#58A8F7" opacity="0" xlink:href="#kyz49twnh7-article-a"/>
      <path fill="#58A8F7" d="M123.544554,38 C147.292079,38 158.861386,56.7865169 182,82 C163.123762,82 82.3134379,82 59,82 C79.0940594,61.2359551 99.7970297,38 123.544554,38 Z" mask="url(#kyz49twnh7-article-b)" opacity=".197"/>
      <path fill="#0D87FF" d="M44.5,31 C69.8826643,31 86.3055556,55.3181901 109,82 C79.2231422,82 7.11330049,82 -20,82 C1.92139189,55.3181901 19.1173357,31 44.5,31 Z" mask="url(#kyz49twnh7-article-b)" opacity=".198"/>
      <circle cx="87" cy="22" r="9" fill="#58A8F7" mask="url(#kyz49twnh7-article-b)" opacity=".499"/>
    </g>
    <path fill="#58A8F7" d="M0,3.00947762 C0,1.34738902 1.34537458,0 2.99263929,0 L177.007361,0 C178.66015,0 180,1.33663106 180,3.00947762 L180,16 L0,16 L0,3.00947762 Z" opacity=".197"/>
    <path fill="#0D87FF" d="M2.5,5 C1.11928813,5 0,3.88071187 0,2.5 C0,1.11928813 1.11928813,0 2.5,0 C3.88071187,0 5,1.11928813 5,2.5 C5,3.88071187 3.88071187,5 2.5,5 Z M10.5,5 C9.11928813,5 8,3.88071187 8,2.5 C8,1.11928813 9.11928813,0 10.5,0 C11.8807119,0 13,1.11928813 13,2.5 C13,3.88071187 11.8807119,5 10.5,5 Z M18.5,5 C17.1192881,5 16,3.88071187 16,2.5 C16,1.11928813 17.1192881,0 18.5,0 C19.8807119,0 21,1.11928813 21,2.5 C21,3.88071187 19.8807119,5 18.5,5 Z" opacity=".499" transform="translate(5 6)"/>
    <polygon fill="#58A8F7" points="0 0 12 0 12 3 0 3" opacity=".197" transform="translate(84 118)"/>
    <polygon fill="#58A8F7" points="0 0 50 0 50 8 0 8" opacity=".499" transform="translate(65 124)"/>
    <polygon fill="#58A8F7" points="0 0 126 0 126 3 0 3" opacity=".197" transform="translate(27 151)"/>
    <polygon fill="#58A8F7" points="0 0 126 0 126 3 0 3" opacity=".197" transform="translate(27 144)"/>
    <polygon fill="#58A8F7" points="0 0 126 0 126 3 0 3" opacity=".197" transform="translate(27 137)"/>
    <polygon fill="#58A8F7" points="0 0 126 0 126 3 0 3" opacity=".197" transform="translate(27 158)"/>
    <polygon fill="#58A8F7" points="0 0 126 0 126 3 0 3" opacity=".197" transform="translate(27 165)"/>
    <polygon fill="#58A8F7" points="0 0 76 0 76 3 0 3" opacity=".197" transform="translate(52 172)"/>
  </g>
</svg></g></g></g><rect x="-1" y="-1" rx="3" ry="3" width="182" height="230" fill="none" stroke="#A2CEF9" stroke-width="2"/><g transform="translate(0,206)"><g><text x="90" y="4" text-anchor="middle" font-family="Roboto,sans-serif" font-size="14px" fill="#52565f">Admin dashboard</text></g></g></g><g transform="translate(410, 26)"><rect x="0" y="0" rx="2" ry="2" width="180" height="228" fill="#ffffff"/><g><g><g transform="translate( 0, 0 )"><svg xmlns="http://www.w3.org/2000/svg" xmlns:xlink="http://www.w3.org/1999/xlink" width="180" height="185" viewBox="0 0 180 185">
  <defs>
    <rect id="ryejz42llr-main-a" width="160" height="82" rx="2"/>
  </defs>
  <g fill="none" fill-rule="evenodd">
    <path fill="#58A8F7" d="M0,2.99971296 C0,1.34301724 1.34537458,0 2.99263929,0 L177.007361,0 C178.66015,0 180,1.34382565 180,2.99971296 L180,185 L0,185 L0,2.99971296 Z" opacity=".097"/>
    <g transform="translate(10 26)">
      <rect width="160" height="82" fill="#58A8F7" opacity=".197" rx="2"/>
      <mask id="ryejz42llr-main-b" fill="#fff">
        <use xlink:href="#ryejz42llr-main-a"/>
      </mask>
      <use fill="#58A8F7" opacity="0" xlink:href="#ryejz42llr-main-a"/>
      <path fill="#58A8F7" d="M123.544554,38 C147.292079,38 158.861386,56.7865169 182,82 C163.123762,82 82.3134379,82 59,82 C79.0940594,61.2359551 99.7970297,38 123.544554,38 Z" mask="url(#ryejz42llr-main-b)" opacity=".197"/>
      <path fill="#0D87FF" d="M44.5,31 C69.8826643,31 86.3055556,55.3181901 109,82 C79.2231422,82 7.11330049,82 -20,82 C1.92139189,55.3181901 19.1173357,31 44.5,31 Z" mask="url(#ryejz42llr-main-b)" opacity=".198"/>
      <circle cx="87" cy="22" r="9" fill="#58A8F7" mask="url(#ryejz42llr-main-b)" opacity=".499"/>
    </g>
    <g transform="translate(26 118)">
      <circle cx="7.5" cy="7.5" r="7.5" fill="#0D87FF" opacity=".499"/>
      <polygon fill="#FFF" points="7.5 9.75 4.855 11.141 5.36 8.195 3.22 6.109 6.177 5.68 7.5 3 8.823 5.68 11.78 6.109 9.64 8.195 10.145 11.141"/>
    </g>
    <g transform="translate(140 118)">
      <circle cx="7.5" cy="7.5" r="7.5" fill="#0D87FF" opacity=".499"/>
      <polygon fill="#FFF" points="7.5 9.75 4.855 11.141 5.36 8.195 3.22 6.109 6.177 5.68 7.5 3 8.823 5.68 11.78 6.109 9.64 8.195 10.145 11.141"/>
    </g>
    <g transform="translate(83 118)">
      <circle cx="7.5" cy="7.5" r="7.5" fill="#0D87FF" opacity=".499"/>
      <polygon fill="#FFF" points="7.5 9.75 4.855 11.141 5.36 8.195 3.22 6.109 6.177 5.68 7.5 3 8.823 5.68 11.78 6.109 9.64 8.195 10.145 11.141"/>
    </g>
    <g fill="#58A8F7" transform="translate(10 139)">
      <polygon points="0 0 26 0 26 5 0 5" opacity=".499" transform="translate(10)"/>
      <polygon points="0 0 46 0 46 3 0 3" opacity=".197" transform="translate(0 17)"/>
      <polygon points="0 0 46 0 46 3 0 3" opacity=".197" transform="translate(0 10)"/>
      <polygon points="0 0 26 0 26 3 0 3" opacity=".197" transform="translate(10 24)"/>
    </g>
    <g fill="#58A8F7" transform="translate(124 139)">
      <polygon points="0 0 26 0 26 5 0 5" opacity=".499" transform="translate(10)"/>
      <polygon points="0 0 46 0 46 3 0 3" opacity=".197" transform="translate(0 17)"/>
      <polygon points="0 0 46 0 46 3 0 3" opacity=".197" transform="translate(0 10)"/>
      <polygon points="0 0 26 0 26 3 0 3" opacity=".197" transform="translate(10 24)"/>
    </g>
    <g fill="#58A8F7" transform="translate(67 139)">
      <polygon points="0 0 26 0 26 5 0 5" opacity=".499" transform="translate(10)"/>
      <polygon points="0 0 46 0 46 3 0 3" opacity=".197" transform="translate(0 17)"/>
      <polygon points="0 0 46 0 46 3 0 3" opacity=".197" transform="translate(0 10)"/>
      <polygon points="0 0 26 0 26 3 0 3" opacity=".197" transform="translate(10 24)"/>
    </g>
    <path fill="#58A8F7" d="M0,3.00947762 C0,1.34738902 1.34537458,0 2.99263929,0 L177.007361,0 C178.66015,0 180,1.33663106 180,3.00947762 L180,16 L0,16 L0,3.00947762 Z" opacity=".197"/>
    <path fill="#0D87FF" d="M2.5,5 C1.11928813,5 0,3.88071187 0,2.5 C0,1.11928813 1.11928813,0 2.5,0 C3.88071187,0 5,1.11928813 5,2.5 C5,3.88071187 3.88071187,5 2.5,5 Z M10.5,5 C9.11928813,5 8,3.88071187 8,2.5 C8,1.11928813 9.11928813,0 10.5,0 C11.8807119,0 13,1.11928813 13,2.5 C13,3.88071187 11.8807119,5 10.5,5 Z M18.5,5 C17.1192881,5 16,3.88071187 16,2.5 C16,1.11928813 17.1192881,0 18.5,0 C19.8807119,0 21,1.11928813 21,2.5 C21,3.88071187 19.8807119,5 18.5,5 Z" opacity=".499" transform="translate(5 6)"/>
  </g>
</svg></g></g></g><rect x="-1" y="-1" rx="3" ry="3" width="182" height="230" fill="none" stroke="#A2CEF9" stroke-width="2"/><g transform="translate(0,206)"><g><text x="90" y="4" text-anchor="middle" font-family="Roboto,sans-serif" font-size="14px" fill="#52565f">Homepage</text></g></g></g></g><g><g><g><path d="M 60,534L 60,560L 60,586" stroke="#4d9ef6" stroke-width="2" fill="none"/></g><g><g transform="translate( 50,524 )"><circle cx="10" cy="10" r="9" stroke-width="2" stroke="#A2CEF9" fill="#ffffff"/><path d="M10 7L13 12L7 12Z" fill="#58A8F7"/></g><g transform="translate( 54,580 )"><circle cx="6" cy="6" r="5" stroke-width="2" stroke="#A2CEF9" fill="#ffffff"/><path d="M6 8L4 5L8 5Z" fill="#58A8F7"/></g></g></g><g><g><path d="M 1070,560L 870,560Q860,560 860,570L 860,586" stroke="#4d9ef6" stroke-width="2" fill="none"/><path d="M 1270,560L 1070,560Q1060,560 1060,570L 1060,586" stroke="#4d9ef6" stroke-width="2" fill="none"/><path d="M 1260,534L 1260,560L 1260,586" stroke="#4d9ef6" stroke-width="2" fill="none"/><path d="M 1250,560L 1450,560Q1460,560 1460,570L 1460,586" stroke="#4d9ef6" stroke-width="2" fill="none"/><path d="M 1450,560L 1650,560Q1660,560 1660,570L 1660,586" stroke="#4d9ef6" stroke-width="2" fill="none"/></g><g><g transform="translate( 1250,524 )"><circle cx="10" cy="10" r="9" stroke-width="2" stroke="#A2CEF9" fill="#ffffff"/><path d="M10 7L13 12L7 12Z" fill="#58A8F7"/></g><g transform="translate( 854,580 )"><circle cx="6" cy="6" r="5" stroke-width="2" stroke="#A2CEF9" fill="#ffffff"/><path d="M6 8L4 5L8 5Z" fill="#58A8F7"/></g><g transform="translate( 1054,580 )"><circle cx="6" cy="6" r="5" stroke-width="2" stroke="#A2CEF9" fill="#ffffff"/><path d="M6 8L4 5L8 5Z" fill="#58A8F7"/></g><g transform="translate( 1254,580 )"><circle cx="6" cy="6" r="5" stroke-width="2" stroke="#A2CEF9" fill="#ffffff"/><path d="M6 8L4 5L8 5Z" fill="#58A8F7"/></g><g transform="translate( 1454,580 )"><circle cx="6" cy="6" r="5" stroke-width="2" stroke="#A2CEF9" fill="#ffffff"/><path d="M6 8L4 5L8 5Z" fill="#58A8F7"/></g><g transform="translate( 1654,580 )"><circle cx="6" cy="6" r="5" stroke-width="2" stroke="#A2CEF9" fill="#ffffff"/><path d="M6 8L4 5L8 5Z" fill="#58A8F7"/></g></g></g><g><g><path d="M 270,280L 70,280Q60,280 60,290L 60,306" stroke="#4d9ef6" stroke-width="2" fill="none"/><path d="M 470,280L 270,280Q260,280 260,290L 260,306" stroke="#4d9ef6" stroke-width="2" fill="none"/><path d="M 460,254L 460,280L 460,306" stroke="#4d9ef6" stroke-width="2" fill="none"/><path d="M 450,280L 650,280Q660,280 660,290L 660,306" stroke="#4d9ef6" stroke-width="2" fill="none"/><path d="M 650,280L 1250,280Q1260,280 1260,290L 1260,306" stroke="#4d9ef6" stroke-width="2" fill="none"/></g><g><g transform="translate( 450,244 )"><circle cx="10" cy="10" r="9" stroke-width="2" stroke="#A2CEF9" fill="#ffffff"/><path d="M10 7L13 12L7 12Z" fill="#58A8F7"/></g><g transform="translate( 54,300 )"><circle cx="6" cy="6" r="5" stroke-width="2" stroke="#A2CEF9" fill="#ffffff"/><path d="M6 8L4 5L8 5Z" fill="#58A8F7"/></g><g transform="translate( 254,300 )"><circle cx="6" cy="6" r="5" stroke-width="2" stroke="#A2CEF9" fill="#ffffff"/><path d="M6 8L4 5L8 5Z" fill="#58A8F7"/></g><g transform="translate( 454,300 )"><circle cx="6" cy="6" r="5" stroke-width="2" stroke="#A2CEF9" fill="#ffffff"/><path d="M6 8L4 5L8 5Z" fill="#58A8F7"/></g><g transform="translate( 654,300 )"><circle cx="6" cy="6" r="5" stroke-width="2" stroke="#A2CEF9" fill="#ffffff"/><path d="M6 8L4 5L8 5Z" fill="#58A8F7"/></g><g transform="translate( 1254,300 )"><circle cx="6" cy="6" r="5" stroke-width="2" stroke="#A2CEF9" fill="#ffffff"/><path d="M6 8L4 5L8 5Z" fill="#58A8F7"/></g></g></g></g></g></g></svg>